<mxfile host="app.diagrams.net" modified="2021-06-03T02:24:39.726Z" agent="5.0 (Windows NT 10.0; Win64; x64) AppleWebKit/537.36 (KHTML, like Gecko) Chrome/90.0.4430.212 Safari/537.36" etag="1goEa-m82lnq7WURvodQ" version="14.6.11" type="github" pages="8">
  <diagram id="kgpKYQtTHZ0yAKxKKP6v" name="초안 교환">
    <mxGraphModel dx="1140" dy="706" grid="1" gridSize="10" guides="1" tooltips="1" connect="1" arrows="1" fold="1" page="1" pageScale="1" pageWidth="850" pageHeight="1100" math="0" shadow="0">
      <root>
        <mxCell id="0" />
        <mxCell id="1" parent="0" />
        <mxCell id="3nuBFxr9cyL0pnOWT2aG-1" value="스위치 엔지니어" style="shape=umlLifeline;perimeter=lifelinePerimeter;container=1;collapsible=0;recursiveResize=0;shadow=0;strokeWidth=1;rounded=1;fontSize=11;" parent="1" vertex="1">
          <mxGeometry x="15.39" y="180" width="100" height="780" as="geometry" />
        </mxCell>
        <mxCell id="3nuBFxr9cyL0pnOWT2aG-5" value="SDN 스위치" style="shape=umlLifeline;perimeter=lifelinePerimeter;container=1;collapsible=0;recursiveResize=0;shadow=0;strokeWidth=1;rounded=1;fontSize=11;" parent="1" vertex="1">
          <mxGeometry x="235.39" y="181.09" width="100" height="818.91" as="geometry" />
        </mxCell>
        <mxCell id="qYvtkJspYxHD3mo_0egV-47" value="sw2" style="rounded=0;whiteSpace=wrap;html=1;shadow=0;align=center;horizontal=0;" parent="3nuBFxr9cyL0pnOWT2aG-5" vertex="1">
          <mxGeometry x="40" y="751" width="20" height="60" as="geometry" />
        </mxCell>
        <mxCell id="PDFexkBuj2RYUaJgiHv2-1" value="SDN 컨트롤러" style="shape=umlLifeline;perimeter=lifelinePerimeter;container=1;collapsible=0;recursiveResize=0;shadow=0;strokeWidth=1;rounded=1;fontSize=11;" parent="1" vertex="1">
          <mxGeometry x="475.39" y="181.09" width="100" height="788.91" as="geometry" />
        </mxCell>
        <mxCell id="PDFexkBuj2RYUaJgiHv2-3" value="컨트롤러 엔지니어" style="shape=umlLifeline;perimeter=lifelinePerimeter;container=1;collapsible=0;recursiveResize=0;shadow=0;strokeWidth=1;rounded=1;fontSize=11;" parent="1" vertex="1">
          <mxGeometry x="705.39" y="181.09" width="108.61" height="788.91" as="geometry" />
        </mxCell>
        <mxCell id="PDFexkBuj2RYUaJgiHv2-5" value="2. 컨트롤러 ip/port 지정" style="endArrow=classic;html=1;entryX=0.482;entryY=0.234;entryDx=0;entryDy=0;entryPerimeter=0;shadow=0;curved=1;fontSize=10;" parent="1" edge="1">
          <mxGeometry x="0.2282" y="2" width="50" height="50" relative="1" as="geometry">
            <mxPoint x="65.39" y="242.09" as="sourcePoint" />
            <mxPoint x="284.59000000000003" y="242.28999999999994" as="targetPoint" />
            <mxPoint as="offset" />
          </mxGeometry>
        </mxCell>
        <mxCell id="PDFexkBuj2RYUaJgiHv2-6" value="3. 약 7초 주기로 지정된 ip/port에 TCP Syn 전송" style="endArrow=classic;html=1;curved=1;entryX=-0.097;entryY=0.072;entryDx=0;entryDy=0;entryPerimeter=0;fontSize=10;exitX=0.489;exitY=0.267;exitDx=0;exitDy=0;exitPerimeter=0;" parent="1" edge="1">
          <mxGeometry x="-0.0308" width="50" height="50" relative="1" as="geometry">
            <mxPoint x="285.28999999999996" y="261.19000000000005" as="sourcePoint" />
            <mxPoint x="514.5469999999999" y="260.5300000000001" as="targetPoint" />
            <mxPoint as="offset" />
          </mxGeometry>
        </mxCell>
        <mxCell id="PDFexkBuj2RYUaJgiHv2-8" value="openflow App" style="whiteSpace=wrap;html=1;rounded=0;glass=0;horizontal=0;align=center;arcSize=24;" parent="1" vertex="1">
          <mxGeometry x="515.39" y="241.09" width="19" height="380" as="geometry" />
        </mxCell>
        <mxCell id="PDFexkBuj2RYUaJgiHv2-9" value="1. Openflow App 실행 명령" style="endArrow=classic;html=1;curved=1;entryX=1;entryY=0;entryDx=0;entryDy=0;fontSize=10;" parent="1" source="PDFexkBuj2RYUaJgiHv2-3" target="PDFexkBuj2RYUaJgiHv2-8" edge="1">
          <mxGeometry x="-0.0019" y="-9" width="50" height="50" relative="1" as="geometry">
            <mxPoint x="765.0299999999999" y="290.59000000000003" as="sourcePoint" />
            <mxPoint x="525.3185714285713" y="290.59000000000003" as="targetPoint" />
            <mxPoint as="offset" />
          </mxGeometry>
        </mxCell>
        <mxCell id="PDFexkBuj2RYUaJgiHv2-11" value="4. TCP Syn/Ack" style="endArrow=classic;html=1;dashed=1;exitX=0;exitY=0.75;exitDx=0;exitDy=0;fontSize=10;" parent="1" edge="1">
          <mxGeometry x="-0.0421" width="50" height="50" relative="1" as="geometry">
            <mxPoint x="515.39" y="296.85000000000014" as="sourcePoint" />
            <mxPoint x="285.7287096774194" y="296.85000000000014" as="targetPoint" />
            <mxPoint as="offset" />
          </mxGeometry>
        </mxCell>
        <mxCell id="PDFexkBuj2RYUaJgiHv2-15" value="TCP Ack" style="endArrow=classic;html=1;curved=1;fontSize=10;" parent="1" edge="1">
          <mxGeometry x="0.0526" width="50" height="50" relative="1" as="geometry">
            <mxPoint x="285.39" y="331.34000000000003" as="sourcePoint" />
            <mxPoint x="513.39" y="332.09000000000003" as="targetPoint" />
            <mxPoint as="offset" />
          </mxGeometry>
        </mxCell>
        <mxCell id="qYvtkJspYxHD3mo_0egV-5" value="FeaturesRequset" style="endArrow=classic;html=1;exitX=-0.094;exitY=0.435;exitDx=0;exitDy=0;exitPerimeter=0;fontSize=10;" parent="1" edge="1">
          <mxGeometry width="50" height="50" relative="1" as="geometry">
            <mxPoint x="513.6039999999999" y="407.3900000000001" as="sourcePoint" />
            <mxPoint x="285.20034482758604" y="407.3900000000001" as="targetPoint" />
          </mxGeometry>
        </mxCell>
        <mxCell id="qYvtkJspYxHD3mo_0egV-6" value="Hello" style="endArrow=classic;html=1;dashed=1;fontSize=10;entryX=-0.022;entryY=0.526;entryDx=0;entryDy=0;entryPerimeter=0;" parent="1" edge="1">
          <mxGeometry x="-0.0421" width="50" height="50" relative="1" as="geometry">
            <mxPoint x="284.81" y="448.09000000000003" as="sourcePoint" />
            <mxPoint x="515.392" y="447.97" as="targetPoint" />
            <mxPoint as="offset" />
          </mxGeometry>
        </mxCell>
        <mxCell id="qYvtkJspYxHD3mo_0egV-11" value="Hello" style="endArrow=classic;html=1;dashed=1;fontSize=10;entryX=0;entryY=0.42;entryDx=0;entryDy=0;entryPerimeter=0;" parent="1" edge="1">
          <mxGeometry x="-0.0421" width="50" height="50" relative="1" as="geometry">
            <mxPoint x="285.20034482758604" y="370.38" as="sourcePoint" />
            <mxPoint x="515.39" y="370.38" as="targetPoint" />
            <mxPoint as="offset" />
          </mxGeometry>
        </mxCell>
        <mxCell id="qYvtkJspYxHD3mo_0egV-12" value="지원 가능한 가장 높은 OpenFlow 버전 송신" style="shape=callout;html=1;perimeter=calloutPerimeter;rounded=0;shadow=0;align=center;size=20;position=0.25;rotation=90;verticalAlign=middle;horizontal=0;whiteSpace=wrap;direction=east;flipV=1;flipH=1;" parent="1" vertex="1">
          <mxGeometry x="169.77999999999997" y="290.78" width="40" height="160" as="geometry" />
        </mxCell>
        <mxCell id="qYvtkJspYxHD3mo_0egV-13" value="서로 가장 낮은 버전으로 통신 시작" style="shape=callout;html=1;perimeter=calloutPerimeter;rounded=0;shadow=0;align=center;size=20;position=0.25;rotation=90;verticalAlign=middle;horizontal=0;whiteSpace=wrap;direction=east;flipV=1;flipH=1;" parent="1" vertex="1">
          <mxGeometry x="169.01" y="366.59000000000003" width="40" height="163" as="geometry" />
        </mxCell>
        <mxCell id="qYvtkJspYxHD3mo_0egV-14" value="지원 가능한 가장 높은 OpenFlow 버전 송신" style="shape=callout;whiteSpace=wrap;html=1;perimeter=calloutPerimeter;rounded=0;shadow=0;align=center;size=20;position=0.25;rotation=90;verticalAlign=middle;horizontal=0;" parent="1" vertex="1">
          <mxGeometry x="601.89" y="327.59000000000003" width="50" height="163" as="geometry" />
        </mxCell>
        <mxCell id="qYvtkJspYxHD3mo_0egV-15" value="[기능 지원 여부 응답]&lt;br&gt;- Flow 통계(o)&lt;br&gt;-Table 통계(o)&lt;br&gt;- Port 통계(o)&lt;br&gt;- Group 통계(x)&lt;br&gt;- IP fragment reassemble 여부(x)&lt;br&gt;- Queue 통계 (x)&lt;br&gt;- Openflow 미지원 포트 (x)" style="shape=callout;html=1;perimeter=calloutPerimeter;rounded=0;shadow=0;align=left;size=19;position=0.75;rotation=90;verticalAlign=middle;horizontal=0;whiteSpace=wrap;direction=east;flipV=1;flipH=1;position2=0.89;base=20;" parent="1" vertex="1">
          <mxGeometry x="119.70999999999998" y="474.59000000000003" width="142.59" height="167" as="geometry" />
        </mxCell>
        <mxCell id="qYvtkJspYxHD3mo_0egV-16" value="FeatureReply" style="endArrow=classic;html=1;dashed=1;fontSize=10;entryX=-0.022;entryY=0.526;entryDx=0;entryDy=0;entryPerimeter=0;" parent="1" edge="1">
          <mxGeometry x="-0.0421" width="50" height="50" relative="1" as="geometry">
            <mxPoint x="284.81000000000006" y="491.21000000000004" as="sourcePoint" />
            <mxPoint x="515.3919999999999" y="491.09000000000003" as="targetPoint" />
            <mxPoint as="offset" />
          </mxGeometry>
        </mxCell>
        <mxCell id="qYvtkJspYxHD3mo_0egV-17" value="MultiipartRequest" style="endArrow=classic;html=1;exitX=-0.094;exitY=0.435;exitDx=0;exitDy=0;exitPerimeter=0;fontSize=10;" parent="1" edge="1">
          <mxGeometry width="50" height="50" relative="1" as="geometry">
            <mxPoint x="515.3939999999999" y="536.4300000000001" as="sourcePoint" />
            <mxPoint x="286.99034482758606" y="536.4300000000001" as="targetPoint" />
          </mxGeometry>
        </mxCell>
        <mxCell id="qYvtkJspYxHD3mo_0egV-18" value="MultipartReply" style="endArrow=classic;html=1;dashed=1;fontSize=10;entryX=-0.022;entryY=0.526;entryDx=0;entryDy=0;entryPerimeter=0;" parent="1" edge="1">
          <mxGeometry x="-0.0421" width="50" height="50" relative="1" as="geometry">
            <mxPoint x="284.81000000000006" y="581.21" as="sourcePoint" />
            <mxPoint x="515.3919999999999" y="581.0900000000001" as="targetPoint" />
            <mxPoint as="offset" />
          </mxGeometry>
        </mxCell>
        <mxCell id="qYvtkJspYxHD3mo_0egV-20" value="기능에서 지원했던 정보 요청" style="shape=callout;whiteSpace=wrap;html=1;perimeter=calloutPerimeter;rounded=0;shadow=0;align=center;size=20;position=0.25;rotation=90;verticalAlign=middle;horizontal=0;" parent="1" vertex="1">
          <mxGeometry x="618.17" y="421.96000000000004" width="50" height="189.13" as="geometry" />
        </mxCell>
        <mxCell id="qYvtkJspYxHD3mo_0egV-21" value="위 정보 요청에 대한 응답" style="shape=callout;whiteSpace=wrap;html=1;perimeter=calloutPerimeter;rounded=0;shadow=0;align=center;size=20;position=0.15;rotation=90;verticalAlign=middle;horizontal=0;base=20;" parent="1" vertex="1">
          <mxGeometry x="617.92" y="490.34000000000003" width="50" height="190.5" as="geometry" />
        </mxCell>
        <mxCell id="qYvtkJspYxHD3mo_0egV-22" value="lldpprovider App" style="whiteSpace=wrap;html=1;rounded=0;glass=0;horizontal=0;align=center;arcSize=24;" parent="1" vertex="1">
          <mxGeometry x="515.89" y="682.09" width="19" height="310" as="geometry" />
        </mxCell>
        <mxCell id="qYvtkJspYxHD3mo_0egV-24" value="lldpprovider App 실행 명령" style="endArrow=classic;html=1;curved=1;entryX=1;entryY=0;entryDx=0;entryDy=0;fontSize=10;" parent="1" edge="1">
          <mxGeometry x="-0.0019" y="-9" width="50" height="50" relative="1" as="geometry">
            <mxPoint x="760" y="692" as="sourcePoint" />
            <mxPoint x="534.8899999999998" y="692.09" as="targetPoint" />
            <mxPoint as="offset" />
          </mxGeometry>
        </mxCell>
        <mxCell id="qYvtkJspYxHD3mo_0egV-26" value="FlowMod(BARRIER_REQUEST)" style="endArrow=classic;html=1;curved=1;entryX=1;entryY=0;entryDx=0;entryDy=0;fontSize=10;" parent="1" edge="1">
          <mxGeometry x="-0.0412" width="50" height="50" relative="1" as="geometry">
            <mxPoint x="515.39" y="732.09" as="sourcePoint" />
            <mxPoint x="284.88999999999976" y="732.09" as="targetPoint" />
            <mxPoint as="offset" />
          </mxGeometry>
        </mxCell>
        <mxCell id="qYvtkJspYxHD3mo_0egV-34" value="LLDP 패킷은 컨트롤러로 전송하도록 Flow install 요청&amp;nbsp;" style="shape=callout;whiteSpace=wrap;html=1;perimeter=calloutPerimeter;rounded=0;shadow=0;align=center;size=20;position=0.15;rotation=90;verticalAlign=middle;horizontal=0;base=20;" parent="1" vertex="1">
          <mxGeometry x="618.17" y="642.09" width="50" height="190.5" as="geometry" />
        </mxCell>
        <mxCell id="qYvtkJspYxHD3mo_0egV-35" value="Flow install에 대한 Ack" style="shape=callout;html=1;perimeter=calloutPerimeter;rounded=0;shadow=0;align=center;size=20;position=0.25;rotation=90;verticalAlign=middle;horizontal=0;whiteSpace=wrap;direction=east;flipV=1;flipH=1;" parent="1" vertex="1">
          <mxGeometry x="169.01" y="712.09" width="40" height="163" as="geometry" />
        </mxCell>
        <mxCell id="qYvtkJspYxHD3mo_0egV-40" value="LLDP를 모든 포트로 &lt;br&gt;전송" style="shape=callout;html=1;perimeter=calloutPerimeter;rounded=0;shadow=0;align=center;size=20;position=0.25;rotation=90;verticalAlign=middle;horizontal=0;whiteSpace=wrap;direction=east;flipV=1;flipH=1;" parent="1" vertex="1">
          <mxGeometry x="145.39" y="790.59" width="40" height="163" as="geometry" />
        </mxCell>
        <mxCell id="qYvtkJspYxHD3mo_0egV-49" style="edgeStyle=orthogonalEdgeStyle;rounded=0;orthogonalLoop=1;jettySize=auto;html=1;entryX=0;entryY=0.5;entryDx=0;entryDy=0;" parent="1" source="qYvtkJspYxHD3mo_0egV-42" target="qYvtkJspYxHD3mo_0egV-47" edge="1">
          <mxGeometry relative="1" as="geometry">
            <Array as="points">
              <mxPoint x="255.39" y="872.09" />
              <mxPoint x="255.39" y="962.09" />
            </Array>
          </mxGeometry>
        </mxCell>
        <mxCell id="qYvtkJspYxHD3mo_0egV-42" value="sw1" style="rounded=0;whiteSpace=wrap;html=1;shadow=0;align=center;horizontal=0;" parent="1" vertex="1">
          <mxGeometry x="275.39" y="842.09" width="20" height="60" as="geometry" />
        </mxCell>
        <mxCell id="qYvtkJspYxHD3mo_0egV-52" value="PacketOut" style="endArrow=classic;html=1;" parent="1" edge="1">
          <mxGeometry width="50" height="50" relative="1" as="geometry">
            <mxPoint x="513.39" y="869.09" as="sourcePoint" />
            <mxPoint x="295.39" y="869.09" as="targetPoint" />
          </mxGeometry>
        </mxCell>
        <mxCell id="qYvtkJspYxHD3mo_0egV-53" value="적용된 Flow Rule에 따라 LLDP 패킷을 Controller로 전송" style="shape=callout;html=1;perimeter=calloutPerimeter;rounded=0;shadow=0;align=center;size=20;position=0.25;rotation=90;verticalAlign=middle;horizontal=0;whiteSpace=wrap;direction=east;flipV=1;flipH=1;" parent="1" vertex="1">
          <mxGeometry x="140.39" y="880.09" width="50" height="163" as="geometry" />
        </mxCell>
        <mxCell id="qYvtkJspYxHD3mo_0egV-55" value="PacketIn" style="edgeStyle=orthogonalEdgeStyle;rounded=0;orthogonalLoop=1;jettySize=auto;html=1;" parent="1" source="qYvtkJspYxHD3mo_0egV-47" edge="1">
          <mxGeometry relative="1" as="geometry">
            <mxPoint x="514.39" y="962.09" as="targetPoint" />
            <Array as="points">
              <mxPoint x="514.39" y="962.09" />
            </Array>
          </mxGeometry>
        </mxCell>
        <mxCell id="qYvtkJspYxHD3mo_0egV-56" value="sw1의 LLDP 정보 + LLDP를 받은 장비 및 수신 포트 정보 획득&lt;br&gt;(sw2의 수신 포트에는 sw1이 있다고 판단)" style="shape=callout;whiteSpace=wrap;html=1;perimeter=calloutPerimeter;rounded=0;shadow=0;align=center;size=20;position=0.15;rotation=90;verticalAlign=middle;horizontal=0;base=23;" parent="1" vertex="1">
          <mxGeometry x="618.1700000000001" y="866.21" width="64.87" height="190.75" as="geometry" />
        </mxCell>
        <mxCell id="ml21NScww0fPto6Bhnmx-1" value="&lt;h1&gt;ONOS Openflow 작동과정 및 토폴로지 탐색&lt;/h1&gt;&lt;p&gt;Openflow&amp;nbsp; 프로토콜의 Session 성립&amp;nbsp; ~ 정보 획득, LLDP를 이용한 토폴로지 탐색 과정&lt;/p&gt;" style="text;html=1;strokeColor=none;fillColor=none;spacing=5;spacingTop=-20;whiteSpace=wrap;overflow=hidden;rounded=0;" parent="1" vertex="1">
          <mxGeometry x="24.39" y="20" width="655.61" height="120" as="geometry" />
        </mxCell>
        <mxCell id="XTESFVKFGYpjJEob4Zfe-5" value="FlowMod(BARRIER_REPLY)" style="endArrow=classic;html=1;curved=1;fontSize=10;exitX=0.525;exitY=0.734;exitDx=0;exitDy=0;exitPerimeter=0;" parent="1" edge="1">
          <mxGeometry x="0.0476" width="50" height="50" relative="1" as="geometry">
            <mxPoint x="292.89" y="791.1499400000001" as="sourcePoint" />
            <mxPoint x="520.3900000000002" y="791.09" as="targetPoint" />
            <mxPoint as="offset" />
          </mxGeometry>
        </mxCell>
        <mxCell id="XTESFVKFGYpjJEob4Zfe-7" value="Flow install에 대한 Ack" style="shape=callout;html=1;perimeter=calloutPerimeter;rounded=0;shadow=0;align=center;size=20;position=0.25;rotation=90;verticalAlign=middle;horizontal=0;whiteSpace=wrap;direction=east;flipV=1;flipH=1;" parent="1" vertex="1">
          <mxGeometry x="174.01" y="712.09" width="40" height="163" as="geometry" />
        </mxCell>
        <mxCell id="XTESFVKFGYpjJEob4Zfe-8" value="모든 포트로 sw1에 대한 정보가 포함된 LLDP 패킷을 PacketOut" style="shape=callout;whiteSpace=wrap;html=1;perimeter=calloutPerimeter;rounded=0;shadow=0;align=center;size=20;position=0.15;rotation=90;verticalAlign=middle;horizontal=0;base=20;" parent="1" vertex="1">
          <mxGeometry x="620.39" y="774.09" width="50" height="190.5" as="geometry" />
        </mxCell>
      </root>
    </mxGraphModel>
  </diagram>
  <diagram id="NTyg4c31zq_9qBIwNSmx" name="lldpProvider">
    <mxGraphModel dx="1140" dy="706" grid="1" gridSize="10" guides="1" tooltips="1" connect="1" arrows="1" fold="1" page="1" pageScale="1" pageWidth="827" pageHeight="1169" math="0" shadow="0">
      <root>
        <mxCell id="_36GQZNdln1OVdj2KNSR-0" />
        <mxCell id="_36GQZNdln1OVdj2KNSR-1" parent="_36GQZNdln1OVdj2KNSR-0" />
        <mxCell id="5J_V-bIuMMiuq78MGXu0-0" value="SDN 스위치" style="shape=umlLifeline;perimeter=lifelinePerimeter;container=1;collapsible=0;recursiveResize=0;shadow=0;strokeWidth=1;rounded=1;fontSize=11;" vertex="1" parent="_36GQZNdln1OVdj2KNSR-1">
          <mxGeometry x="235.7" y="80" width="100" height="657.91" as="geometry" />
        </mxCell>
        <mxCell id="5J_V-bIuMMiuq78MGXu0-1" value="SDN 컨트롤러" style="shape=umlLifeline;perimeter=lifelinePerimeter;container=1;collapsible=0;recursiveResize=0;shadow=0;strokeWidth=1;rounded=1;fontSize=11;" vertex="1" parent="_36GQZNdln1OVdj2KNSR-1">
          <mxGeometry x="475.7" y="80" width="100" height="662.91" as="geometry" />
        </mxCell>
        <mxCell id="5J_V-bIuMMiuq78MGXu0-2" value="컨트롤러 엔지니어" style="shape=umlLifeline;perimeter=lifelinePerimeter;container=1;collapsible=0;recursiveResize=0;shadow=0;strokeWidth=1;rounded=1;fontSize=11;" vertex="1" parent="_36GQZNdln1OVdj2KNSR-1">
          <mxGeometry x="705.7" y="80" width="108.61" height="666.91" as="geometry" />
        </mxCell>
        <mxCell id="9IsPAx0P60ACAMTtpcIX-0" value="sw2" style="rounded=0;whiteSpace=wrap;html=1;shadow=0;align=center;horizontal=0;" vertex="1" parent="_36GQZNdln1OVdj2KNSR-1">
          <mxGeometry x="275" y="400" width="20" height="60" as="geometry" />
        </mxCell>
        <mxCell id="9IsPAx0P60ACAMTtpcIX-1" value="lldpprovider App" style="whiteSpace=wrap;html=1;rounded=0;glass=0;horizontal=0;align=center;arcSize=24;" vertex="1" parent="_36GQZNdln1OVdj2KNSR-1">
          <mxGeometry x="515.5" y="150.00000000000006" width="19" height="310" as="geometry" />
        </mxCell>
        <mxCell id="9IsPAx0P60ACAMTtpcIX-2" value="1. lldpprovider App 실행 명령" style="endArrow=classic;html=1;curved=1;entryX=1;entryY=0;entryDx=0;entryDy=0;fontSize=11;" edge="1" parent="_36GQZNdln1OVdj2KNSR-1">
          <mxGeometry x="-0.0019" y="-9" width="50" height="50" relative="1" as="geometry">
            <mxPoint x="759.61" y="159.91000000000003" as="sourcePoint" />
            <mxPoint x="534.4999999999999" y="160.00000000000017" as="targetPoint" />
            <mxPoint as="offset" />
          </mxGeometry>
        </mxCell>
        <mxCell id="9IsPAx0P60ACAMTtpcIX-3" value="2. FlowMod(BARRIER_REQUEST)" style="endArrow=classic;html=1;curved=1;entryX=1;entryY=0;entryDx=0;entryDy=0;fontSize=11;" edge="1" parent="_36GQZNdln1OVdj2KNSR-1">
          <mxGeometry x="-0.0412" width="50" height="50" relative="1" as="geometry">
            <mxPoint x="514.9999999999999" y="200.00000000000017" as="sourcePoint" />
            <mxPoint x="284.4999999999999" y="200.00000000000017" as="targetPoint" />
            <mxPoint as="offset" />
          </mxGeometry>
        </mxCell>
        <mxCell id="9IsPAx0P60ACAMTtpcIX-4" value="LLDP 패킷은 컨트롤러로 전송하도록 Flow install 요청&amp;nbsp;" style="shape=callout;whiteSpace=wrap;html=1;perimeter=calloutPerimeter;rounded=0;shadow=0;align=center;size=20;position=0.15;rotation=90;verticalAlign=middle;horizontal=0;base=20;" vertex="1" parent="_36GQZNdln1OVdj2KNSR-1">
          <mxGeometry x="623.35" y="105.19" width="50" height="200.13" as="geometry" />
        </mxCell>
        <mxCell id="9IsPAx0P60ACAMTtpcIX-5" value="Flow install에 대한 Ack" style="shape=callout;html=1;perimeter=calloutPerimeter;rounded=0;shadow=0;align=center;size=20;position=0.25;rotation=90;verticalAlign=middle;horizontal=0;whiteSpace=wrap;direction=east;flipV=1;flipH=1;" vertex="1" parent="_36GQZNdln1OVdj2KNSR-1">
          <mxGeometry x="145" y="180.00000000000006" width="40" height="163" as="geometry" />
        </mxCell>
        <mxCell id="9IsPAx0P60ACAMTtpcIX-6" value="LLDP를 모든 포트로 &lt;br&gt;전송" style="shape=callout;html=1;perimeter=calloutPerimeter;rounded=0;shadow=0;align=center;size=20;position=0.25;rotation=90;verticalAlign=middle;horizontal=0;whiteSpace=wrap;direction=east;flipV=1;flipH=1;" vertex="1" parent="_36GQZNdln1OVdj2KNSR-1">
          <mxGeometry x="145" y="258.50000000000006" width="40" height="163" as="geometry" />
        </mxCell>
        <mxCell id="9IsPAx0P60ACAMTtpcIX-7" style="edgeStyle=orthogonalEdgeStyle;rounded=0;orthogonalLoop=1;jettySize=auto;html=1;entryX=0;entryY=0.5;entryDx=0;entryDy=0;" edge="1" parent="_36GQZNdln1OVdj2KNSR-1" source="9IsPAx0P60ACAMTtpcIX-8" target="9IsPAx0P60ACAMTtpcIX-0">
          <mxGeometry relative="1" as="geometry">
            <Array as="points">
              <mxPoint x="255" y="340" />
              <mxPoint x="255" y="430" />
            </Array>
          </mxGeometry>
        </mxCell>
        <mxCell id="9IsPAx0P60ACAMTtpcIX-8" value="sw1" style="rounded=0;whiteSpace=wrap;html=1;shadow=0;align=center;horizontal=0;" vertex="1" parent="_36GQZNdln1OVdj2KNSR-1">
          <mxGeometry x="275" y="310" width="20" height="60" as="geometry" />
        </mxCell>
        <mxCell id="9IsPAx0P60ACAMTtpcIX-9" value="4. PacketOut" style="endArrow=classic;html=1;fontSize=11;" edge="1" parent="_36GQZNdln1OVdj2KNSR-1">
          <mxGeometry width="50" height="50" relative="1" as="geometry">
            <mxPoint x="512.9999999999999" y="337.0000000000002" as="sourcePoint" />
            <mxPoint x="294.9999999999999" y="337.0000000000002" as="targetPoint" />
          </mxGeometry>
        </mxCell>
        <mxCell id="9IsPAx0P60ACAMTtpcIX-10" value="적용된 Flow Rule에 따라 LLDP 패킷을 Controller로 전송" style="shape=callout;html=1;perimeter=calloutPerimeter;rounded=0;shadow=0;align=center;size=20;position=0.25;rotation=90;verticalAlign=middle;horizontal=0;whiteSpace=wrap;direction=east;flipV=1;flipH=1;" vertex="1" parent="_36GQZNdln1OVdj2KNSR-1">
          <mxGeometry x="140" y="348" width="50" height="163" as="geometry" />
        </mxCell>
        <mxCell id="9IsPAx0P60ACAMTtpcIX-11" value="5. PacketIn" style="edgeStyle=orthogonalEdgeStyle;rounded=0;orthogonalLoop=1;jettySize=auto;html=1;fontSize=11;" edge="1" parent="_36GQZNdln1OVdj2KNSR-1">
          <mxGeometry relative="1" as="geometry">
            <mxPoint x="511.9999999999999" y="430.0000000000002" as="targetPoint" />
            <Array as="points">
              <mxPoint x="512" y="430" />
            </Array>
            <mxPoint x="293" y="430.0000000000002" as="sourcePoint" />
          </mxGeometry>
        </mxCell>
        <mxCell id="9IsPAx0P60ACAMTtpcIX-12" value="sw1의 LLDP 정보 + LLDP를 받은 장비 및 수신 포트 정보 획득&lt;br&gt;(sw2의 수신 포트에는 sw1이 있다고 판단)" style="shape=callout;whiteSpace=wrap;html=1;perimeter=calloutPerimeter;rounded=0;shadow=0;align=center;size=20;position=0.15;rotation=90;verticalAlign=middle;horizontal=0;base=23;" vertex="1" parent="_36GQZNdln1OVdj2KNSR-1">
          <mxGeometry x="617.7800000000001" y="327.07" width="64.87" height="204.87" as="geometry" />
        </mxCell>
        <mxCell id="9IsPAx0P60ACAMTtpcIX-13" value="3. FlowMod(BARRIER_REPLY)" style="endArrow=classic;html=1;curved=1;fontSize=11;exitX=0.525;exitY=0.734;exitDx=0;exitDy=0;exitPerimeter=0;" edge="1" parent="_36GQZNdln1OVdj2KNSR-1">
          <mxGeometry x="0.0476" width="50" height="50" relative="1" as="geometry">
            <mxPoint x="287.9999999999999" y="258.55994000000027" as="sourcePoint" />
            <mxPoint x="515.5000000000003" y="258.50000000000017" as="targetPoint" />
            <mxPoint as="offset" />
          </mxGeometry>
        </mxCell>
        <mxCell id="9IsPAx0P60ACAMTtpcIX-15" value="모든 포트로 sw1에 대한 정보가 포함된 LLDP 패킷을 PacketOut" style="shape=callout;whiteSpace=wrap;html=1;perimeter=calloutPerimeter;rounded=0;shadow=0;align=center;size=20;position=0.15;rotation=90;verticalAlign=middle;horizontal=0;base=20;" vertex="1" parent="_36GQZNdln1OVdj2KNSR-1">
          <mxGeometry x="626" y="236" width="50" height="202.5" as="geometry" />
        </mxCell>
      </root>
    </mxGraphModel>
  </diagram>
  <diagram id="o9ISsJDLcXWVeFqDP7L_" name="요약">
    <mxGraphModel dx="1629" dy="1009" grid="0" gridSize="10" guides="1" tooltips="1" connect="1" arrows="1" fold="1" page="1" pageScale="1" pageWidth="827" pageHeight="1169" math="0" shadow="0">
      <root>
        <mxCell id="6C3MgPUXNdswaxsrxd5J-0" />
        <mxCell id="6C3MgPUXNdswaxsrxd5J-1" parent="6C3MgPUXNdswaxsrxd5J-0" />
        <mxCell id="PFhAU-Phulyg9WrCjoMu-0" value="스위치 엔지니어" style="shape=umlLifeline;perimeter=lifelinePerimeter;container=1;collapsible=0;recursiveResize=0;shadow=0;strokeWidth=1;rounded=1;fontSize=11;" parent="6C3MgPUXNdswaxsrxd5J-1" vertex="1">
          <mxGeometry x="20" y="137" width="100" height="657" as="geometry" />
        </mxCell>
        <mxCell id="PFhAU-Phulyg9WrCjoMu-1" value="SDN 스위치" style="shape=umlLifeline;perimeter=lifelinePerimeter;container=1;collapsible=0;recursiveResize=0;shadow=0;strokeWidth=1;rounded=1;fontSize=11;" parent="6C3MgPUXNdswaxsrxd5J-1" vertex="1">
          <mxGeometry x="240" y="138.09" width="100" height="657.91" as="geometry" />
        </mxCell>
        <mxCell id="PFhAU-Phulyg9WrCjoMu-3" value="SDN 컨트롤러" style="shape=umlLifeline;perimeter=lifelinePerimeter;container=1;collapsible=0;recursiveResize=0;shadow=0;strokeWidth=1;rounded=1;fontSize=11;" parent="6C3MgPUXNdswaxsrxd5J-1" vertex="1">
          <mxGeometry x="480" y="138.09" width="100" height="662.91" as="geometry" />
        </mxCell>
        <mxCell id="PFhAU-Phulyg9WrCjoMu-4" value="컨트롤러 엔지니어" style="shape=umlLifeline;perimeter=lifelinePerimeter;container=1;collapsible=0;recursiveResize=0;shadow=0;strokeWidth=1;rounded=1;fontSize=11;" parent="6C3MgPUXNdswaxsrxd5J-1" vertex="1">
          <mxGeometry x="710" y="138.09" width="108.61" height="666.91" as="geometry" />
        </mxCell>
        <mxCell id="PFhAU-Phulyg9WrCjoMu-5" value="2. 컨트롤러 ip/port 지정" style="endArrow=classic;html=1;entryX=0.482;entryY=0.234;entryDx=0;entryDy=0;entryPerimeter=0;shadow=0;curved=1;fontSize=13;" parent="6C3MgPUXNdswaxsrxd5J-1" edge="1">
          <mxGeometry x="0.0114" y="11" width="50" height="50" relative="1" as="geometry">
            <mxPoint x="69.99999999999989" y="199.08999999999992" as="sourcePoint" />
            <mxPoint x="289.20000000000016" y="199.28999999999996" as="targetPoint" />
            <mxPoint as="offset" />
          </mxGeometry>
        </mxCell>
        <mxCell id="PFhAU-Phulyg9WrCjoMu-7" value="openflow App" style="whiteSpace=wrap;html=1;rounded=0;glass=0;horizontal=0;align=center;arcSize=24;" parent="6C3MgPUXNdswaxsrxd5J-1" vertex="1">
          <mxGeometry x="520" y="198.09" width="19" height="551.91" as="geometry" />
        </mxCell>
        <mxCell id="PFhAU-Phulyg9WrCjoMu-8" value="1. Openflow App 실행 명령" style="endArrow=classic;html=1;curved=1;entryX=1;entryY=0;entryDx=0;entryDy=0;fontSize=13;" parent="6C3MgPUXNdswaxsrxd5J-1" source="PFhAU-Phulyg9WrCjoMu-4" target="PFhAU-Phulyg9WrCjoMu-7" edge="1">
          <mxGeometry x="-0.0019" y="-9" width="50" height="50" relative="1" as="geometry">
            <mxPoint x="769.6399999999999" y="247.59000000000003" as="sourcePoint" />
            <mxPoint x="529.9285714285713" y="247.59000000000003" as="targetPoint" />
            <mxPoint as="offset" />
          </mxGeometry>
        </mxCell>
        <mxCell id="PFhAU-Phulyg9WrCjoMu-11" value="5. FeaturesRequset" style="endArrow=classic;html=1;exitX=-0.094;exitY=0.435;exitDx=0;exitDy=0;exitPerimeter=0;fontSize=13;" parent="6C3MgPUXNdswaxsrxd5J-1" edge="1">
          <mxGeometry width="50" height="50" relative="1" as="geometry">
            <mxPoint x="518.2139999999998" y="294.6400000000001" as="sourcePoint" />
            <mxPoint x="289.81034482758594" y="294.6400000000001" as="targetPoint" />
          </mxGeometry>
        </mxCell>
        <mxCell id="PFhAU-Phulyg9WrCjoMu-12" value="6. Hello" style="endArrow=classic;html=1;dashed=1;fontSize=13;entryX=-0.022;entryY=0.526;entryDx=0;entryDy=0;entryPerimeter=0;" parent="6C3MgPUXNdswaxsrxd5J-1" edge="1">
          <mxGeometry x="-0.0421" width="50" height="50" relative="1" as="geometry">
            <mxPoint x="289.41999999999996" y="335.34000000000015" as="sourcePoint" />
            <mxPoint x="520.0019999999998" y="335.22" as="targetPoint" />
            <mxPoint as="offset" />
          </mxGeometry>
        </mxCell>
        <mxCell id="PFhAU-Phulyg9WrCjoMu-13" value="4. Hello" style="endArrow=classic;html=1;dashed=1;fontSize=13;entryX=0;entryY=0.42;entryDx=0;entryDy=0;entryPerimeter=0;" parent="6C3MgPUXNdswaxsrxd5J-1" edge="1">
          <mxGeometry x="-0.0421" width="50" height="50" relative="1" as="geometry">
            <mxPoint x="289.81034482758594" y="257.6300000000001" as="sourcePoint" />
            <mxPoint x="519.9999999999999" y="257.6300000000001" as="targetPoint" />
            <mxPoint as="offset" />
          </mxGeometry>
        </mxCell>
        <mxCell id="PFhAU-Phulyg9WrCjoMu-14" value="지원 가능한 가장 높은 OpenFlow 버전 송신" style="shape=callout;html=1;perimeter=calloutPerimeter;rounded=0;shadow=0;align=center;size=20;position=0.25;rotation=90;verticalAlign=middle;horizontal=0;whiteSpace=wrap;direction=east;flipV=1;flipH=1;" parent="6C3MgPUXNdswaxsrxd5J-1" vertex="1">
          <mxGeometry x="174.39" y="178.02999999999997" width="40" height="160" as="geometry" />
        </mxCell>
        <mxCell id="PFhAU-Phulyg9WrCjoMu-15" value="서로 가장 낮은 버전으로 통신 시작" style="shape=callout;html=1;perimeter=calloutPerimeter;rounded=0;shadow=0;align=center;size=20;position=0.25;rotation=90;verticalAlign=middle;horizontal=0;whiteSpace=wrap;direction=east;flipV=1;flipH=1;" parent="6C3MgPUXNdswaxsrxd5J-1" vertex="1">
          <mxGeometry x="173.62" y="253.84000000000003" width="40" height="163" as="geometry" />
        </mxCell>
        <mxCell id="PFhAU-Phulyg9WrCjoMu-16" value="지원 가능한 가장 높은 OpenFlow 버전 송신" style="shape=callout;whiteSpace=wrap;html=1;perimeter=calloutPerimeter;rounded=0;shadow=0;align=center;size=20;position=0.25;rotation=90;verticalAlign=middle;horizontal=0;" parent="6C3MgPUXNdswaxsrxd5J-1" vertex="1">
          <mxGeometry x="606.5" y="214.84000000000003" width="50" height="163" as="geometry" />
        </mxCell>
        <mxCell id="PFhAU-Phulyg9WrCjoMu-17" value="[기능 지원 여부 응답]&lt;br&gt;- Flow 통계(o)&lt;br&gt;-Table 통계(o)&lt;br&gt;- Port 통계(o)&lt;br&gt;- Group 통계(x)&lt;br&gt;- IP fragment reassemble 여부(x)&lt;br&gt;- Queue 통계 (x)&lt;br&gt;- Openflow 미지원 포트 (x)" style="shape=callout;html=1;perimeter=calloutPerimeter;rounded=0;shadow=0;align=left;size=19;position=0.75;rotation=90;verticalAlign=middle;horizontal=0;whiteSpace=wrap;direction=east;flipV=1;flipH=1;position2=0.89;base=20;" parent="6C3MgPUXNdswaxsrxd5J-1" vertex="1">
          <mxGeometry x="122.33" y="368.00000000000006" width="142.59" height="167" as="geometry" />
        </mxCell>
        <mxCell id="PFhAU-Phulyg9WrCjoMu-18" value="7. FeatureReply" style="endArrow=classic;html=1;dashed=1;fontSize=13;entryX=-0.022;entryY=0.526;entryDx=0;entryDy=0;entryPerimeter=0;" parent="6C3MgPUXNdswaxsrxd5J-1" edge="1">
          <mxGeometry x="-0.0421" width="50" height="50" relative="1" as="geometry">
            <mxPoint x="289.41999999999996" y="378.46000000000004" as="sourcePoint" />
            <mxPoint x="520.0019999999998" y="378.34000000000015" as="targetPoint" />
            <mxPoint as="offset" />
          </mxGeometry>
        </mxCell>
        <mxCell id="PFhAU-Phulyg9WrCjoMu-19" value="10. MultiipartRequest" style="endArrow=classic;html=1;exitX=-0.094;exitY=0.435;exitDx=0;exitDy=0;exitPerimeter=0;fontSize=13;" parent="6C3MgPUXNdswaxsrxd5J-1" edge="1">
          <mxGeometry width="50" height="50" relative="1" as="geometry">
            <mxPoint x="520.0039999999998" y="509.68000000000006" as="sourcePoint" />
            <mxPoint x="291.6003448275859" y="509.68000000000006" as="targetPoint" />
          </mxGeometry>
        </mxCell>
        <mxCell id="PFhAU-Phulyg9WrCjoMu-20" value="11. MultipartReply" style="endArrow=classic;html=1;dashed=1;fontSize=13;entryX=-0.022;entryY=0.526;entryDx=0;entryDy=0;entryPerimeter=0;" parent="6C3MgPUXNdswaxsrxd5J-1" edge="1">
          <mxGeometry x="-0.0421" width="50" height="50" relative="1" as="geometry">
            <mxPoint x="289.41999999999996" y="554.46" as="sourcePoint" />
            <mxPoint x="520.0019999999998" y="554.3400000000001" as="targetPoint" />
            <mxPoint as="offset" />
          </mxGeometry>
        </mxCell>
        <mxCell id="PFhAU-Phulyg9WrCjoMu-21" value="기능에서 지원했던 정보 요청" style="shape=callout;whiteSpace=wrap;html=1;perimeter=calloutPerimeter;rounded=0;shadow=0;align=center;size=20;position=0.25;rotation=90;verticalAlign=middle;horizontal=0;" parent="6C3MgPUXNdswaxsrxd5J-1" vertex="1">
          <mxGeometry x="622.78" y="287.00000000000006" width="50" height="189.13" as="geometry" />
        </mxCell>
        <mxCell id="PFhAU-Phulyg9WrCjoMu-22" value="7에서 얻은 지원&amp;nbsp;정보&lt;br&gt;&amp;nbsp;요청 및 응답" style="shape=callout;whiteSpace=wrap;html=1;perimeter=calloutPerimeter;rounded=0;shadow=0;align=center;size=20;position=0.15;rotation=90;verticalAlign=middle;horizontal=0;base=20;" parent="6C3MgPUXNdswaxsrxd5J-1" vertex="1">
          <mxGeometry x="622.7800000000001" y="442" width="50" height="189.41" as="geometry" />
        </mxCell>
        <mxCell id="PFhAU-Phulyg9WrCjoMu-37" value="&lt;h1&gt;ONOS Openflow 작동과정 및 토폴로지 탐색&lt;/h1&gt;&lt;p&gt;Openflow&amp;nbsp; 프로토콜의 Session 성립&amp;nbsp; ~ 정보 획득, LLDP를 이용한 토폴로지 탐색 과정&lt;/p&gt;" style="text;html=1;strokeColor=none;fillColor=none;spacing=5;spacingTop=-20;whiteSpace=wrap;overflow=hidden;rounded=0;" parent="6C3MgPUXNdswaxsrxd5J-1" vertex="1">
          <mxGeometry x="23" y="40" width="655.61" height="120" as="geometry" />
        </mxCell>
        <mxCell id="PFhAU-Phulyg9WrCjoMu-38" value="3. TCP 연결" style="endArrow=classic;startArrow=classic;html=1;entryX=-0.113;entryY=0.066;entryDx=0;entryDy=0;entryPerimeter=0;fontSize=13;" parent="6C3MgPUXNdswaxsrxd5J-1" edge="1">
          <mxGeometry width="50" height="50" relative="1" as="geometry">
            <mxPoint x="290" y="218" as="sourcePoint" />
            <mxPoint x="517.8530000000001" y="218.16999999999996" as="targetPoint" />
          </mxGeometry>
        </mxCell>
        <mxCell id="eSG7Y5yM1ved3A0_hW6g-0" value="12. OFPT_STATS_REQUEST" style="endArrow=classic;html=1;exitX=-0.094;exitY=0.435;exitDx=0;exitDy=0;exitPerimeter=0;" parent="6C3MgPUXNdswaxsrxd5J-1" edge="1">
          <mxGeometry width="50" height="50" relative="1" as="geometry">
            <mxPoint x="520.5039999999999" y="595" as="sourcePoint" />
            <mxPoint x="292.100344827586" y="595" as="targetPoint" />
          </mxGeometry>
        </mxCell>
        <mxCell id="eSG7Y5yM1ved3A0_hW6g-1" value="11.&amp;nbsp;&lt;span style=&quot;font-size: 11px&quot;&gt;OFPT_STATS_RESPLY&lt;/span&gt;" style="endArrow=classic;html=1;dashed=1;fontSize=10;entryX=-0.022;entryY=0.526;entryDx=0;entryDy=0;entryPerimeter=0;" parent="6C3MgPUXNdswaxsrxd5J-1" edge="1">
          <mxGeometry x="-0.0421" width="50" height="50" relative="1" as="geometry">
            <mxPoint x="289.9200000000001" y="639.78" as="sourcePoint" />
            <mxPoint x="520.502" y="639.6600000000001" as="targetPoint" />
            <mxPoint as="offset" />
          </mxGeometry>
        </mxCell>
        <mxCell id="eSG7Y5yM1ved3A0_hW6g-2" value="5초 단위로 Flow&amp;nbsp; 통계 정보 &lt;br&gt;요청&amp;nbsp;" style="shape=callout;whiteSpace=wrap;html=1;perimeter=calloutPerimeter;rounded=0;shadow=0;align=center;size=20;position=0.15;rotation=90;verticalAlign=middle;horizontal=0;base=20;" parent="6C3MgPUXNdswaxsrxd5J-1" vertex="1">
          <mxGeometry x="622.7800000000001" y="527" width="50" height="189.41" as="geometry" />
        </mxCell>
        <mxCell id="wHySmoKOcR5oL1sbrTXY-1" value="8. ConfigRequest" style="endArrow=classic;html=1;exitX=-0.094;exitY=0.435;exitDx=0;exitDy=0;exitPerimeter=0;fontSize=13;" parent="6C3MgPUXNdswaxsrxd5J-1" edge="1">
          <mxGeometry width="50" height="50" relative="1" as="geometry">
            <mxPoint x="520.0039999999997" y="423.0000000000001" as="sourcePoint" />
            <mxPoint x="291.60034482758607" y="423.0000000000001" as="targetPoint" />
          </mxGeometry>
        </mxCell>
        <mxCell id="wHySmoKOcR5oL1sbrTXY-4" value="9. ConfigReply" style="endArrow=classic;html=1;dashed=1;fontSize=13;entryX=-0.022;entryY=0.526;entryDx=0;entryDy=0;entryPerimeter=0;" parent="6C3MgPUXNdswaxsrxd5J-1" edge="1">
          <mxGeometry x="-0.0421" width="50" height="50" relative="1" as="geometry">
            <mxPoint x="289.4200000000001" y="465.28000000000003" as="sourcePoint" />
            <mxPoint x="520.0020000000002" y="465.16000000000014" as="targetPoint" />
            <mxPoint as="offset" />
          </mxGeometry>
        </mxCell>
        <mxCell id="wHySmoKOcR5oL1sbrTXY-5" value="IP Fragment 관련 처리&amp;nbsp; 설정" style="shape=callout;whiteSpace=wrap;html=1;perimeter=calloutPerimeter;rounded=0;shadow=0;align=center;size=20;position=0.25;rotation=90;verticalAlign=middle;horizontal=0;" parent="6C3MgPUXNdswaxsrxd5J-1" vertex="1">
          <mxGeometry x="622.78" y="359.00000000000006" width="50" height="189.13" as="geometry" />
        </mxCell>
      </root>
    </mxGraphModel>
  </diagram>
  <diagram id="Z3LNlKYgEeW07nG-YWjR" name="hostprovider">
    <mxGraphModel dx="1140" dy="706" grid="0" gridSize="10" guides="1" tooltips="1" connect="1" arrows="1" fold="1" page="1" pageScale="1" pageWidth="827" pageHeight="1169" math="0" shadow="0">
      <root>
        <mxCell id="K0FE11GiWry6urTOb_XR-0" />
        <mxCell id="K0FE11GiWry6urTOb_XR-1" parent="K0FE11GiWry6urTOb_XR-0" />
        <mxCell id="SNe_JRskBqE9h69aMe_s-1" value="SDN 스위치" style="shape=umlLifeline;perimeter=lifelinePerimeter;container=1;collapsible=0;recursiveResize=0;shadow=0;strokeWidth=1;rounded=1;fontSize=11;" parent="K0FE11GiWry6urTOb_XR-1" vertex="1">
          <mxGeometry x="219" y="50.18000000000001" width="100" height="657.91" as="geometry" />
        </mxCell>
        <mxCell id="SNe_JRskBqE9h69aMe_s-2" value="SDN 컨트롤러" style="shape=umlLifeline;perimeter=lifelinePerimeter;container=1;collapsible=0;recursiveResize=0;shadow=0;strokeWidth=1;rounded=1;fontSize=11;" parent="K0FE11GiWry6urTOb_XR-1" vertex="1">
          <mxGeometry x="450" y="51.09" width="100" height="662.91" as="geometry" />
        </mxCell>
        <mxCell id="SNe_JRskBqE9h69aMe_s-3" value="컨트롤러 엔지니어" style="shape=umlLifeline;perimeter=lifelinePerimeter;container=1;collapsible=0;recursiveResize=0;shadow=0;strokeWidth=1;rounded=1;fontSize=11;" parent="K0FE11GiWry6urTOb_XR-1" vertex="1">
          <mxGeometry x="680" y="51.09" width="108.61" height="666.91" as="geometry" />
        </mxCell>
        <mxCell id="K0FE11GiWry6urTOb_XR-2" value="모든 SDN 스위치에 ARP패킷은 컨트롤러로 전송하도록 Flow install 요청&amp;nbsp;" style="shape=callout;whiteSpace=wrap;html=1;perimeter=calloutPerimeter;rounded=0;shadow=0;align=center;size=20;position=0.15;rotation=90;verticalAlign=middle;horizontal=0;base=20;" parent="K0FE11GiWry6urTOb_XR-1" vertex="1">
          <mxGeometry x="587" y="80" width="50" height="190" as="geometry" />
        </mxCell>
        <mxCell id="K0FE11GiWry6urTOb_XR-3" value="lhostprovider App" style="whiteSpace=wrap;html=1;rounded=0;glass=0;horizontal=0;align=center;arcSize=24;" parent="K0FE11GiWry6urTOb_XR-1" vertex="1">
          <mxGeometry x="491" y="109.00000000000011" width="19" height="216" as="geometry" />
        </mxCell>
        <mxCell id="K0FE11GiWry6urTOb_XR-4" value="1. hostprovider App 실행 명령" style="endArrow=classic;html=1;curved=1;entryX=1;entryY=0;entryDx=0;entryDy=0;fontSize=10;" parent="K0FE11GiWry6urTOb_XR-1" edge="1">
          <mxGeometry x="-0.0019" y="-9" width="50" height="50" relative="1" as="geometry">
            <mxPoint x="735.11" y="122.99999999999966" as="sourcePoint" />
            <mxPoint x="509.9999999999999" y="123.0899999999998" as="targetPoint" />
            <mxPoint as="offset" />
          </mxGeometry>
        </mxCell>
        <mxCell id="K0FE11GiWry6urTOb_XR-5" value="2. FlowMod(BARRIER_REQUEST)" style="endArrow=classic;html=1;curved=1;fontSize=10;" parent="K0FE11GiWry6urTOb_XR-1" edge="1">
          <mxGeometry x="-0.0412" width="50" height="50" relative="1" as="geometry">
            <mxPoint x="491.00000000000034" y="176.0000000000001" as="sourcePoint" />
            <mxPoint x="269" y="176" as="targetPoint" />
            <mxPoint as="offset" />
          </mxGeometry>
        </mxCell>
        <mxCell id="K0FE11GiWry6urTOb_XR-6" value="3. FlowMod(BARRIER_REPLY)" style="endArrow=classic;html=1;curved=1;fontSize=10;" parent="K0FE11GiWry6urTOb_XR-1" edge="1">
          <mxGeometry x="-0.0607" width="50" height="50" relative="1" as="geometry">
            <mxPoint x="269" y="226" as="sourcePoint" />
            <mxPoint x="490.61" y="225.90999999999997" as="targetPoint" />
            <mxPoint as="offset" />
          </mxGeometry>
        </mxCell>
        <mxCell id="K0FE11GiWry6urTOb_XR-7" value="Flow install에 대한 Ack" style="shape=callout;html=1;perimeter=calloutPerimeter;rounded=0;shadow=0;align=center;size=20;position=0.25;rotation=90;verticalAlign=middle;horizontal=0;whiteSpace=wrap;direction=east;flipV=1;flipH=1;" parent="K0FE11GiWry6urTOb_XR-1" vertex="1">
          <mxGeometry x="161" y="147.9999999999999" width="40" height="163" as="geometry" />
        </mxCell>
        <mxCell id="K0FE11GiWry6urTOb_XR-8" value="4. ARP 패킷 Packet_IN" style="endArrow=classic;html=1;curved=1;fontSize=10;" parent="K0FE11GiWry6urTOb_XR-1" edge="1">
          <mxGeometry x="0.0476" width="50" height="50" relative="1" as="geometry">
            <mxPoint x="267" y="284" as="sourcePoint" />
            <mxPoint x="491.00000000000034" y="283.9999999999999" as="targetPoint" />
            <mxPoint as="offset" />
          </mxGeometry>
        </mxCell>
        <mxCell id="K0FE11GiWry6urTOb_XR-9" value="ARP 패킷의 Source MAC을 ARP를 수신한 SDN스위치 &lt;br&gt;포트와 연결" style="shape=callout;whiteSpace=wrap;html=1;perimeter=calloutPerimeter;rounded=0;shadow=0;align=center;size=20;position=0.15;rotation=90;verticalAlign=middle;horizontal=0;base=20;" parent="K0FE11GiWry6urTOb_XR-1" vertex="1">
          <mxGeometry x="591.51" y="190.9999999999999" width="50" height="190" as="geometry" />
        </mxCell>
      </root>
    </mxGraphModel>
  </diagram>
  <diagram id="q3TcYXUi_fGD1SfxcgR_" name="optical-model">
    <mxGraphModel dx="1305" dy="1986" grid="1" gridSize="10" guides="1" tooltips="1" connect="1" arrows="1" fold="1" page="1" pageScale="1" pageWidth="827" pageHeight="1169" math="0" shadow="0">
      <root>
        <mxCell id="asj99d2kmihCowmhCzEW-0" />
        <mxCell id="asj99d2kmihCowmhCzEW-1" parent="asj99d2kmihCowmhCzEW-0" />
        <mxCell id="dyzZs2aWoXe4qcZkWVVi-87" value="Optical-model App" style="shape=table;childLayout=tableLayout;rowLines=0;columnLines=0;startSize=40;html=1;whiteSpace=wrap;collapsible=0;recursiveResize=0;expand=0;pointerEvents=0;fontStyle=1;align=left;rounded=0;" parent="asj99d2kmihCowmhCzEW-1" vertex="1">
          <mxGeometry x="40" y="-1120" width="750" height="710" as="geometry" />
        </mxCell>
        <mxCell id="dyzZs2aWoXe4qcZkWVVi-92" value="OpticalModelLoader.java" style="swimlane;horizontal=0;points=[[0,0.5],[1,0.5]];portConstraint=eastwest;startSize=40;html=1;whiteSpace=wrap;collapsible=0;recursiveResize=0;expand=0;pointerEvents=0;" parent="dyzZs2aWoXe4qcZkWVVi-87" vertex="1">
          <mxGeometry y="40" width="750" height="670" as="geometry" />
        </mxCell>
        <mxCell id="dyzZs2aWoXe4qcZkWVVi-93" value="" style="swimlane;connectable=0;startSize=0;html=1;whiteSpace=wrap;collapsible=0;recursiveResize=0;expand=0;pointerEvents=0;align=left;" parent="dyzZs2aWoXe4qcZkWVVi-92" vertex="1">
          <mxGeometry x="40" width="710" height="670" as="geometry" />
        </mxCell>
        <mxCell id="dyzZs2aWoXe4qcZkWVVi-65" value="app activated" style="rounded=1;whiteSpace=wrap;html=1;" parent="dyzZs2aWoXe4qcZkWVVi-93" vertex="1">
          <mxGeometry x="60" y="30" width="220" height="60" as="geometry" />
        </mxCell>
        <mxCell id="dyzZs2aWoXe4qcZkWVVi-101" value="OpticalPortOperator 등록" style="rounded=1;whiteSpace=wrap;html=1;" parent="dyzZs2aWoXe4qcZkWVVi-93" vertex="1">
          <mxGeometry x="60" y="140" width="220" height="60" as="geometry" />
        </mxCell>
        <mxCell id="dyzZs2aWoXe4qcZkWVVi-107" value="ConnectPoint" style="rounded=1;whiteSpace=wrap;html=1;" parent="dyzZs2aWoXe4qcZkWVVi-93" vertex="1">
          <mxGeometry x="60" y="430" width="220" height="60" as="geometry" />
        </mxCell>
        <mxCell id="dyzZs2aWoXe4qcZkWVVi-108" value="OpticalPortConfig" style="rounded=1;whiteSpace=wrap;html=1;" parent="dyzZs2aWoXe4qcZkWVVi-93" vertex="1">
          <mxGeometry x="380" y="430" width="220" height="60" as="geometry" />
        </mxCell>
        <mxCell id="dyzZs2aWoXe4qcZkWVVi-109" value="OpticalPortOperator&lt;br&gt;&amp;lt;OpticalPortConfig&amp;gt;" style="rounded=1;whiteSpace=wrap;html=1;" parent="dyzZs2aWoXe4qcZkWVVi-93" vertex="1">
          <mxGeometry x="60" y="546" width="220" height="60" as="geometry" />
        </mxCell>
        <mxCell id="dyzZs2aWoXe4qcZkWVVi-110" value="" style="endArrow=classic;html=1;exitX=0.5;exitY=1;exitDx=0;exitDy=0;" parent="dyzZs2aWoXe4qcZkWVVi-93" source="dyzZs2aWoXe4qcZkWVVi-107" target="dyzZs2aWoXe4qcZkWVVi-109" edge="1">
          <mxGeometry width="50" height="50" relative="1" as="geometry">
            <mxPoint x="180" y="530" as="sourcePoint" />
            <mxPoint x="230" y="480" as="targetPoint" />
          </mxGeometry>
        </mxCell>
        <mxCell id="dyzZs2aWoXe4qcZkWVVi-111" value="" style="endArrow=classic;html=1;exitX=0.5;exitY=1;exitDx=0;exitDy=0;entryX=0.5;entryY=0;entryDx=0;entryDy=0;" parent="dyzZs2aWoXe4qcZkWVVi-93" source="dyzZs2aWoXe4qcZkWVVi-108" target="dyzZs2aWoXe4qcZkWVVi-109" edge="1">
          <mxGeometry width="50" height="50" relative="1" as="geometry">
            <mxPoint x="180" y="500" as="sourcePoint" />
            <mxPoint x="180" y="556" as="targetPoint" />
          </mxGeometry>
        </mxCell>
        <mxCell id="dyzZs2aWoXe4qcZkWVVi-113" value="1. TYPE&lt;br&gt;2. NAME&lt;br&gt;3. PORT&lt;br&gt;4. STATIC PORT&lt;br&gt;5. STATIC LAMBDA&lt;br&gt;6. SPEED&lt;br&gt;7. OPTIONAL" style="shape=callout;whiteSpace=wrap;html=1;perimeter=calloutPerimeter;rounded=0;align=left;" parent="dyzZs2aWoXe4qcZkWVVi-93" vertex="1">
          <mxGeometry x="380" y="300" width="220" height="130" as="geometry" />
        </mxCell>
        <mxCell id="dyzZs2aWoXe4qcZkWVVi-100" value="" style="endArrow=classic;html=1;exitX=0.5;exitY=1;exitDx=0;exitDy=0;" parent="asj99d2kmihCowmhCzEW-1" source="dyzZs2aWoXe4qcZkWVVi-65" edge="1">
          <mxGeometry width="50" height="50" relative="1" as="geometry">
            <mxPoint x="370" y="-960" as="sourcePoint" />
            <mxPoint x="250" y="-940" as="targetPoint" />
          </mxGeometry>
        </mxCell>
      </root>
    </mxGraphModel>
  </diagram>
  <diagram id="pAAcPX9RCFgzJIJW038B" name="openflow-base">
    <mxGraphModel dx="1305" dy="1986" grid="1" gridSize="10" guides="1" tooltips="1" connect="1" arrows="1" fold="1" page="1" pageScale="1" pageWidth="827" pageHeight="1169" math="0" shadow="0">
      <root>
        <mxCell id="aC73XDsIqKG3hUR2DNnT-0" />
        <mxCell id="aC73XDsIqKG3hUR2DNnT-1" parent="aC73XDsIqKG3hUR2DNnT-0" />
        <mxCell id="Rpi6jchmvs54_9ls4LSr-0" value="openflow-base" style="shape=table;childLayout=tableLayout;rowLines=0;columnLines=0;startSize=40;html=1;whiteSpace=wrap;collapsible=0;recursiveResize=0;expand=0;pointerEvents=0;fontStyle=0;align=center;rounded=0;" parent="aC73XDsIqKG3hUR2DNnT-1" vertex="1">
          <mxGeometry x="260" y="-1120" width="3160" height="990" as="geometry" />
        </mxCell>
        <mxCell id="Yr1gq1VHMnSCD-bMXYAA-21" style="swimlane;horizontal=0;points=[[0,0.5],[1,0.5]];portConstraint=eastwest;startSize=40;html=1;whiteSpace=wrap;collapsible=0;recursiveResize=0;expand=0;pointerEvents=0;" parent="Rpi6jchmvs54_9ls4LSr-0" vertex="1">
          <mxGeometry y="40" width="3160" height="950" as="geometry" />
        </mxCell>
        <mxCell id="Yr1gq1VHMnSCD-bMXYAA-22" value="&#xa;&#xa;&lt;span style=&quot;color: rgb(0, 0, 0); font-family: helvetica; font-size: 12px; font-style: normal; font-weight: 700; letter-spacing: normal; text-indent: 0px; text-transform: none; word-spacing: 0px; background-color: rgb(255, 255, 255); display: inline; float: none;&quot;&gt;OpenFlowClassifierManager.java&lt;/span&gt;&#xa;&#xa;" style="swimlane;connectable=0;startSize=20;html=1;whiteSpace=wrap;collapsible=0;recursiveResize=0;expand=0;pointerEvents=0;align=center;" parent="Yr1gq1VHMnSCD-bMXYAA-21" vertex="1">
          <mxGeometry x="40" width="414" height="950" as="geometry" />
        </mxCell>
        <mxCell id="pRcQAlQp7p_SNrFVslkO-1" style="edgeStyle=orthogonalEdgeStyle;rounded=0;orthogonalLoop=1;jettySize=auto;html=1;entryX=0.5;entryY=0;entryDx=0;entryDy=0;" parent="Yr1gq1VHMnSCD-bMXYAA-22" source="Yr1gq1VHMnSCD-bMXYAA-27" target="Yr1gq1VHMnSCD-bMXYAA-28" edge="1">
          <mxGeometry relative="1" as="geometry" />
        </mxCell>
        <mxCell id="Yr1gq1VHMnSCD-bMXYAA-27" value="app activated" style="rounded=1;whiteSpace=wrap;html=1;" parent="Yr1gq1VHMnSCD-bMXYAA-22" vertex="1">
          <mxGeometry x="50" y="70" width="220" height="60" as="geometry" />
        </mxCell>
        <mxCell id="pRcQAlQp7p_SNrFVslkO-0" style="edgeStyle=orthogonalEdgeStyle;rounded=0;orthogonalLoop=1;jettySize=auto;html=1;entryX=0.5;entryY=0;entryDx=0;entryDy=0;" parent="Yr1gq1VHMnSCD-bMXYAA-22" source="Yr1gq1VHMnSCD-bMXYAA-28" target="Yr1gq1VHMnSCD-bMXYAA-29" edge="1">
          <mxGeometry relative="1" as="geometry" />
        </mxCell>
        <mxCell id="Yr1gq1VHMnSCD-bMXYAA-28" value="OpenFlowClassifierConfigFactory &lt;br&gt;장비별 등록" style="rounded=1;whiteSpace=wrap;html=1;" parent="Yr1gq1VHMnSCD-bMXYAA-22" vertex="1">
          <mxGeometry x="50" y="180" width="220" height="60" as="geometry" />
        </mxCell>
        <mxCell id="Yr1gq1VHMnSCD-bMXYAA-29" value="Network Config(상태) 이벤트 리스너&lt;br&gt;등록" style="rounded=1;whiteSpace=wrap;html=1;" parent="Yr1gq1VHMnSCD-bMXYAA-22" vertex="1">
          <mxGeometry x="50" y="290" width="220" height="60" as="geometry" />
        </mxCell>
        <mxCell id="Yr1gq1VHMnSCD-bMXYAA-30" value="" style="endArrow=classic;html=1;exitX=0.5;exitY=1;exitDx=0;exitDy=0;" parent="Yr1gq1VHMnSCD-bMXYAA-22" edge="1">
          <mxGeometry width="50" height="50" relative="1" as="geometry">
            <mxPoint x="159.5" y="350" as="sourcePoint" />
            <mxPoint x="159.5" y="400" as="targetPoint" />
          </mxGeometry>
        </mxCell>
        <mxCell id="Yr1gq1VHMnSCD-bMXYAA-31" value="장비별 Openflow config(상태) 업데이트" style="rounded=1;whiteSpace=wrap;html=1;" parent="Yr1gq1VHMnSCD-bMXYAA-22" vertex="1">
          <mxGeometry x="40" y="400" width="240" height="60" as="geometry" />
        </mxCell>
        <mxCell id="pRcQAlQp7p_SNrFVslkO-45" value="[OpenFlow Classifier]&lt;br&gt;1. ethernetType&lt;br&gt;2. idQueue&lt;br&gt;3. deviceID" style="rounded=0;whiteSpace=wrap;html=1;align=left;" parent="Yr1gq1VHMnSCD-bMXYAA-22" vertex="1">
          <mxGeometry x="35" y="856" width="250" height="70" as="geometry" />
        </mxCell>
        <mxCell id="Yr1gq1VHMnSCD-bMXYAA-23" value="OpenflowControllerImpl.java" style="swimlane;connectable=0;startSize=20;html=1;whiteSpace=wrap;collapsible=0;recursiveResize=0;expand=0;pointerEvents=0;align=center;" parent="Yr1gq1VHMnSCD-bMXYAA-21" vertex="1">
          <mxGeometry x="454" width="2706" height="950" as="geometry" />
        </mxCell>
        <mxCell id="pRcQAlQp7p_SNrFVslkO-3" value="app activated" style="rounded=1;whiteSpace=wrap;html=1;" parent="Yr1gq1VHMnSCD-bMXYAA-23" vertex="1">
          <mxGeometry x="44" y="60" width="220" height="60" as="geometry" />
        </mxCell>
        <mxCell id="pRcQAlQp7p_SNrFVslkO-5" value="openflow-base 등록" style="rounded=1;whiteSpace=wrap;html=1;" parent="Yr1gq1VHMnSCD-bMXYAA-23" vertex="1">
          <mxGeometry x="44" y="170" width="220" height="60" as="geometry" />
        </mxCell>
        <mxCell id="pRcQAlQp7p_SNrFVslkO-2" style="edgeStyle=orthogonalEdgeStyle;rounded=0;orthogonalLoop=1;jettySize=auto;html=1;entryX=0.5;entryY=0;entryDx=0;entryDy=0;" parent="Yr1gq1VHMnSCD-bMXYAA-23" source="pRcQAlQp7p_SNrFVslkO-3" target="pRcQAlQp7p_SNrFVslkO-5" edge="1">
          <mxGeometry relative="1" as="geometry" />
        </mxCell>
        <mxCell id="pRcQAlQp7p_SNrFVslkO-4" style="edgeStyle=orthogonalEdgeStyle;rounded=0;orthogonalLoop=1;jettySize=auto;html=1;entryX=0.5;entryY=0;entryDx=0;entryDy=0;" parent="Yr1gq1VHMnSCD-bMXYAA-23" source="pRcQAlQp7p_SNrFVslkO-5" edge="1">
          <mxGeometry relative="1" as="geometry">
            <mxPoint x="154" y="280" as="targetPoint" />
          </mxGeometry>
        </mxCell>
        <mxCell id="pRcQAlQp7p_SNrFVslkO-7" value="" style="endArrow=classic;html=1;exitX=0.5;exitY=1;exitDx=0;exitDy=0;" parent="Yr1gq1VHMnSCD-bMXYAA-23" edge="1">
          <mxGeometry width="50" height="50" relative="1" as="geometry">
            <mxPoint x="153.49999999999977" y="340" as="sourcePoint" />
            <mxPoint x="153.49999999999977" y="390" as="targetPoint" />
          </mxGeometry>
        </mxCell>
        <mxCell id="pRcQAlQp7p_SNrFVslkO-11" style="edgeStyle=orthogonalEdgeStyle;rounded=0;orthogonalLoop=1;jettySize=auto;html=1;entryX=0.5;entryY=0;entryDx=0;entryDy=0;" parent="Yr1gq1VHMnSCD-bMXYAA-23" source="pRcQAlQp7p_SNrFVslkO-8" target="pRcQAlQp7p_SNrFVslkO-10" edge="1">
          <mxGeometry relative="1" as="geometry" />
        </mxCell>
        <mxCell id="pRcQAlQp7p_SNrFVslkO-8" value="OpenflowConfigFactory 등록&lt;br&gt;(OpenflowDeviceConfig)" style="rounded=1;whiteSpace=wrap;html=1;" parent="Yr1gq1VHMnSCD-bMXYAA-23" vertex="1">
          <mxGeometry x="34" y="390" width="240" height="60" as="geometry" />
        </mxCell>
        <mxCell id="pRcQAlQp7p_SNrFVslkO-9" value="cfgService.&lt;br&gt;registerPropertises(getClass())" style="shape=process;whiteSpace=wrap;html=1;backgroundOutline=1;align=center;" parent="Yr1gq1VHMnSCD-bMXYAA-23" vertex="1">
          <mxGeometry x="44" y="280" width="216" height="60" as="geometry" />
        </mxCell>
        <mxCell id="pRcQAlQp7p_SNrFVslkO-23" style="edgeStyle=orthogonalEdgeStyle;rounded=0;orthogonalLoop=1;jettySize=auto;html=1;entryX=0.5;entryY=0;entryDx=0;entryDy=0;" parent="Yr1gq1VHMnSCD-bMXYAA-23" source="pRcQAlQp7p_SNrFVslkO-10" edge="1">
          <mxGeometry relative="1" as="geometry">
            <mxPoint x="154" y="630" as="targetPoint" />
          </mxGeometry>
        </mxCell>
        <mxCell id="vEYwnT2NdRy8BUSH6Dxo-60" style="edgeStyle=orthogonalEdgeStyle;rounded=0;orthogonalLoop=1;jettySize=auto;html=1;entryX=0;entryY=0.5;entryDx=0;entryDy=0;" parent="Yr1gq1VHMnSCD-bMXYAA-23" source="pRcQAlQp7p_SNrFVslkO-10" target="pRcQAlQp7p_SNrFVslkO-42" edge="1">
          <mxGeometry relative="1" as="geometry" />
        </mxCell>
        <mxCell id="pRcQAlQp7p_SNrFVslkO-10" value="OpenflowConfigListener 등록" style="rounded=1;whiteSpace=wrap;html=1;" parent="Yr1gq1VHMnSCD-bMXYAA-23" vertex="1">
          <mxGeometry x="34" y="510" width="240" height="60" as="geometry" />
        </mxCell>
        <mxCell id="pRcQAlQp7p_SNrFVslkO-39" style="edgeStyle=orthogonalEdgeStyle;rounded=0;orthogonalLoop=1;jettySize=auto;html=1;" parent="Yr1gq1VHMnSCD-bMXYAA-23" target="pRcQAlQp7p_SNrFVslkO-37" edge="1">
          <mxGeometry relative="1" as="geometry">
            <mxPoint x="152" y="690" as="sourcePoint" />
          </mxGeometry>
        </mxCell>
        <mxCell id="pRcQAlQp7p_SNrFVslkO-37" value="controller.setConfigParams&lt;br&gt;(context.getProperties())" style="shape=process;whiteSpace=wrap;html=1;backgroundOutline=1;align=center;" parent="Yr1gq1VHMnSCD-bMXYAA-23" vertex="1">
          <mxGeometry x="34" y="751" width="236" height="60" as="geometry" />
        </mxCell>
        <mxCell id="pRcQAlQp7p_SNrFVslkO-42" value="Openflow Config(상태) 이벤트 발생" style="rounded=1;whiteSpace=wrap;html=1;" parent="Yr1gq1VHMnSCD-bMXYAA-23" vertex="1">
          <mxGeometry x="390" y="60" width="240" height="60" as="geometry" />
        </mxCell>
        <mxCell id="pRcQAlQp7p_SNrFVslkO-43" style="edgeStyle=orthogonalEdgeStyle;rounded=0;orthogonalLoop=1;jettySize=auto;html=1;entryX=0.5;entryY=0;entryDx=0;entryDy=0;" parent="Yr1gq1VHMnSCD-bMXYAA-23" source="pRcQAlQp7p_SNrFVslkO-42" edge="1">
          <mxGeometry relative="1" as="geometry">
            <mxPoint x="510" y="170" as="targetPoint" />
          </mxGeometry>
        </mxCell>
        <mxCell id="pRcQAlQp7p_SNrFVslkO-48" value="[OpenFlow Device Config]&lt;br&gt;1. DeviceID&lt;br&gt;2. Client key alias (장비의 별명)" style="rounded=0;whiteSpace=wrap;html=1;align=left;" parent="Yr1gq1VHMnSCD-bMXYAA-23" vertex="1">
          <mxGeometry x="24" y="854" width="250" height="70" as="geometry" />
        </mxCell>
        <mxCell id="pRcQAlQp7p_SNrFVslkO-51" value="yes" style="edgeStyle=orthogonalEdgeStyle;rounded=0;orthogonalLoop=1;jettySize=auto;html=1;entryX=0;entryY=0.5;entryDx=0;entryDy=0;" parent="Yr1gq1VHMnSCD-bMXYAA-23" source="pRcQAlQp7p_SNrFVslkO-49" target="pRcQAlQp7p_SNrFVslkO-50" edge="1">
          <mxGeometry relative="1" as="geometry" />
        </mxCell>
        <mxCell id="pRcQAlQp7p_SNrFVslkO-55" value="no" style="edgeStyle=orthogonalEdgeStyle;rounded=0;orthogonalLoop=1;jettySize=auto;html=1;" parent="Yr1gq1VHMnSCD-bMXYAA-23" source="pRcQAlQp7p_SNrFVslkO-49" target="pRcQAlQp7p_SNrFVslkO-54" edge="1">
          <mxGeometry relative="1" as="geometry" />
        </mxCell>
        <mxCell id="pRcQAlQp7p_SNrFVslkO-49" value="이전 config가 존재?" style="rhombus;whiteSpace=wrap;html=1;align=center;" parent="Yr1gq1VHMnSCD-bMXYAA-23" vertex="1">
          <mxGeometry x="400" y="170" width="220" height="80" as="geometry" />
        </mxCell>
        <mxCell id="pRcQAlQp7p_SNrFVslkO-50" value="prevConfig = event,prevConfig().get()" style="rounded=1;whiteSpace=wrap;html=1;" parent="Yr1gq1VHMnSCD-bMXYAA-23" vertex="1">
          <mxGeometry x="690" y="180" width="220" height="60" as="geometry" />
        </mxCell>
        <mxCell id="pRcQAlQp7p_SNrFVslkO-92" value="yes" style="edgeStyle=orthogonalEdgeStyle;rounded=0;orthogonalLoop=1;jettySize=auto;html=1;entryX=0;entryY=0.5;entryDx=0;entryDy=0;" parent="Yr1gq1VHMnSCD-bMXYAA-23" source="pRcQAlQp7p_SNrFVslkO-54" target="pRcQAlQp7p_SNrFVslkO-89" edge="1">
          <mxGeometry relative="1" as="geometry" />
        </mxCell>
        <mxCell id="pRcQAlQp7p_SNrFVslkO-94" value="no" style="edgeStyle=orthogonalEdgeStyle;rounded=0;orthogonalLoop=1;jettySize=auto;html=1;" parent="Yr1gq1VHMnSCD-bMXYAA-23" source="pRcQAlQp7p_SNrFVslkO-54" target="pRcQAlQp7p_SNrFVslkO-93" edge="1">
          <mxGeometry relative="1" as="geometry" />
        </mxCell>
        <mxCell id="pRcQAlQp7p_SNrFVslkO-54" value="현재 config가 존재?" style="rhombus;whiteSpace=wrap;html=1;align=center;" parent="Yr1gq1VHMnSCD-bMXYAA-23" vertex="1">
          <mxGeometry x="400" y="320" width="220" height="80" as="geometry" />
        </mxCell>
        <mxCell id="pRcQAlQp7p_SNrFVslkO-89" value="newConfig = event.config().get()" style="rounded=1;whiteSpace=wrap;html=1;" parent="Yr1gq1VHMnSCD-bMXYAA-23" vertex="1">
          <mxGeometry x="690" y="330" width="220" height="60" as="geometry" />
        </mxCell>
        <mxCell id="V5Hu6-mLKJl4xwlomV1q-4" value="yes" style="edgeStyle=orthogonalEdgeStyle;rounded=0;orthogonalLoop=1;jettySize=auto;html=1;" parent="Yr1gq1VHMnSCD-bMXYAA-23" source="pRcQAlQp7p_SNrFVslkO-93" target="pRcQAlQp7p_SNrFVslkO-139" edge="1">
          <mxGeometry relative="1" as="geometry" />
        </mxCell>
        <mxCell id="V5Hu6-mLKJl4xwlomV1q-11" value="no" style="edgeStyle=orthogonalEdgeStyle;rounded=0;orthogonalLoop=1;jettySize=auto;html=1;" parent="Yr1gq1VHMnSCD-bMXYAA-23" source="pRcQAlQp7p_SNrFVslkO-93" target="V5Hu6-mLKJl4xwlomV1q-7" edge="1">
          <mxGeometry relative="1" as="geometry" />
        </mxCell>
        <mxCell id="pRcQAlQp7p_SNrFVslkO-93" value="prevConfig 및 newConfig가&lt;br&gt;null이 아니라면?" style="rhombus;whiteSpace=wrap;html=1;align=center;" parent="Yr1gq1VHMnSCD-bMXYAA-23" vertex="1">
          <mxGeometry x="400" y="456" width="220" height="80" as="geometry" />
        </mxCell>
        <mxCell id="pRcQAlQp7p_SNrFVslkO-134" value="" style="endArrow=classic;html=1;exitX=0.5;exitY=1;exitDx=0;exitDy=0;entryX=0.5;entryY=0;entryDx=0;entryDy=0;" parent="Yr1gq1VHMnSCD-bMXYAA-23" source="pRcQAlQp7p_SNrFVslkO-50" target="pRcQAlQp7p_SNrFVslkO-54" edge="1">
          <mxGeometry width="50" height="50" relative="1" as="geometry">
            <mxPoint x="640" y="460" as="sourcePoint" />
            <mxPoint x="690" y="410" as="targetPoint" />
          </mxGeometry>
        </mxCell>
        <mxCell id="pRcQAlQp7p_SNrFVslkO-135" value="" style="endArrow=classic;html=1;exitX=0.5;exitY=1;exitDx=0;exitDy=0;entryX=0.5;entryY=0;entryDx=0;entryDy=0;" parent="Yr1gq1VHMnSCD-bMXYAA-23" source="pRcQAlQp7p_SNrFVslkO-89" edge="1">
          <mxGeometry width="50" height="50" relative="1" as="geometry">
            <mxPoint x="800" y="376" as="sourcePoint" />
            <mxPoint x="510" y="456" as="targetPoint" />
          </mxGeometry>
        </mxCell>
        <mxCell id="V5Hu6-mLKJl4xwlomV1q-5" value="yes" style="edgeStyle=orthogonalEdgeStyle;rounded=0;orthogonalLoop=1;jettySize=auto;html=1;entryX=0;entryY=0.5;entryDx=0;entryDy=0;" parent="Yr1gq1VHMnSCD-bMXYAA-23" source="pRcQAlQp7p_SNrFVslkO-139" edge="1">
          <mxGeometry relative="1" as="geometry">
            <mxPoint x="690" y="640" as="targetPoint" />
          </mxGeometry>
        </mxCell>
        <mxCell id="pRcQAlQp7p_SNrFVslkO-139" value="newConfig와 preConfig가&lt;br&gt;같다면?" style="rhombus;whiteSpace=wrap;html=1;align=center;" parent="Yr1gq1VHMnSCD-bMXYAA-23" vertex="1">
          <mxGeometry x="400" y="600" width="220" height="80" as="geometry" />
        </mxCell>
        <mxCell id="V5Hu6-mLKJl4xwlomV1q-10" value="yes" style="edgeStyle=orthogonalEdgeStyle;rounded=0;orthogonalLoop=1;jettySize=auto;html=1;entryX=0.5;entryY=0;entryDx=0;entryDy=0;" parent="Yr1gq1VHMnSCD-bMXYAA-23" source="V5Hu6-mLKJl4xwlomV1q-7" edge="1">
          <mxGeometry relative="1" as="geometry">
            <mxPoint x="800" y="610" as="targetPoint" />
          </mxGeometry>
        </mxCell>
        <mxCell id="V5Hu6-mLKJl4xwlomV1q-7" value="prevConfig가 null이 아니라면?" style="rhombus;whiteSpace=wrap;html=1;align=center;" parent="Yr1gq1VHMnSCD-bMXYAA-23" vertex="1">
          <mxGeometry x="690" y="456" width="220" height="80" as="geometry" />
        </mxCell>
        <mxCell id="vEYwnT2NdRy8BUSH6Dxo-65" value="yes" style="edgeStyle=orthogonalEdgeStyle;rounded=0;orthogonalLoop=1;jettySize=auto;html=1;entryX=0.5;entryY=0;entryDx=0;entryDy=0;" parent="Yr1gq1VHMnSCD-bMXYAA-23" source="V5Hu6-mLKJl4xwlomV1q-12" target="vEYwnT2NdRy8BUSH6Dxo-1" edge="1">
          <mxGeometry relative="1" as="geometry" />
        </mxCell>
        <mxCell id="V5Hu6-mLKJl4xwlomV1q-12" value="event.subject()&lt;br&gt;instance of DeviceId" style="rhombus;whiteSpace=wrap;html=1;align=center;" parent="Yr1gq1VHMnSCD-bMXYAA-23" vertex="1">
          <mxGeometry x="690" y="600" width="220" height="80" as="geometry" />
        </mxCell>
        <mxCell id="vEYwnT2NdRy8BUSH6Dxo-3" value="yes" style="edgeStyle=orthogonalEdgeStyle;rounded=0;orthogonalLoop=1;jettySize=auto;html=1;entryX=1;entryY=0.5;entryDx=0;entryDy=0;" parent="Yr1gq1VHMnSCD-bMXYAA-23" source="vEYwnT2NdRy8BUSH6Dxo-1" target="vEYwnT2NdRy8BUSH6Dxo-2" edge="1">
          <mxGeometry relative="1" as="geometry" />
        </mxCell>
        <mxCell id="vEYwnT2NdRy8BUSH6Dxo-1" value="이벤트가 발생한 스위치가 null이 아니고&lt;br&gt;클라이언트가 TLS STRICT 모드라면?" style="rhombus;whiteSpace=wrap;html=1;align=center;" parent="Yr1gq1VHMnSCD-bMXYAA-23" vertex="1">
          <mxGeometry x="690" y="740.5" width="220" height="89.5" as="geometry" />
        </mxCell>
        <mxCell id="vEYwnT2NdRy8BUSH6Dxo-2" value="스위치와 TCP Connection 종료" style="rounded=0;whiteSpace=wrap;html=1;" parent="Yr1gq1VHMnSCD-bMXYAA-23" vertex="1">
          <mxGeometry x="400" y="755.25" width="220" height="60" as="geometry" />
        </mxCell>
        <mxCell id="vEYwnT2NdRy8BUSH6Dxo-46" value="설정 Properties대로&amp;nbsp;&lt;br&gt;Queue, Thread, bulk size SET" style="rounded=1;whiteSpace=wrap;html=1;" parent="Yr1gq1VHMnSCD-bMXYAA-23" vertex="1">
          <mxGeometry x="34" y="630" width="240" height="60" as="geometry" />
        </mxCell>
        <mxCell id="ZxU1BofiS5UZ1Z1j9jdf-1" style="edgeStyle=orthogonalEdgeStyle;rounded=0;orthogonalLoop=1;jettySize=auto;html=1;" parent="Yr1gq1VHMnSCD-bMXYAA-23" source="vEYwnT2NdRy8BUSH6Dxo-47" target="vEYwnT2NdRy8BUSH6Dxo-50" edge="1">
          <mxGeometry relative="1" as="geometry" />
        </mxCell>
        <mxCell id="vEYwnT2NdRy8BUSH6Dxo-47" value="controller.setConfigParams&lt;br&gt;(context.getProperties())" style="shape=process;whiteSpace=wrap;html=1;backgroundOutline=1;align=center;" parent="Yr1gq1VHMnSCD-bMXYAA-23" vertex="1">
          <mxGeometry x="1062" y="60" width="236" height="60" as="geometry" />
        </mxCell>
        <mxCell id="vEYwnT2NdRy8BUSH6Dxo-52" style="edgeStyle=orthogonalEdgeStyle;rounded=0;orthogonalLoop=1;jettySize=auto;html=1;entryX=0.5;entryY=0;entryDx=0;entryDy=0;" parent="Yr1gq1VHMnSCD-bMXYAA-23" source="vEYwnT2NdRy8BUSH6Dxo-50" target="vEYwnT2NdRy8BUSH6Dxo-51" edge="1">
          <mxGeometry relative="1" as="geometry" />
        </mxCell>
        <mxCell id="vEYwnT2NdRy8BUSH6Dxo-50" value="Openflow Agent 등록&lt;br&gt;DriverService 등록&lt;br&gt;NetConfigService 등록" style="rounded=1;whiteSpace=wrap;html=1;" parent="Yr1gq1VHMnSCD-bMXYAA-23" vertex="1">
          <mxGeometry x="1060" y="170" width="240" height="60" as="geometry" />
        </mxCell>
        <mxCell id="vEYwnT2NdRy8BUSH6Dxo-56" style="edgeStyle=orthogonalEdgeStyle;rounded=0;orthogonalLoop=1;jettySize=auto;html=1;entryX=0.5;entryY=0;entryDx=0;entryDy=0;" parent="Yr1gq1VHMnSCD-bMXYAA-23" source="vEYwnT2NdRy8BUSH6Dxo-51" target="vEYwnT2NdRy8BUSH6Dxo-53" edge="1">
          <mxGeometry relative="1" as="geometry" />
        </mxCell>
        <mxCell id="vEYwnT2NdRy8BUSH6Dxo-51" value="시스템 시작 시간 초기화&lt;br&gt;컨트롤러 IP 캐시 초기화&lt;br&gt;cg = new DefaultChannelGroup()" style="rounded=1;whiteSpace=wrap;html=1;" parent="Yr1gq1VHMnSCD-bMXYAA-23" vertex="1">
          <mxGeometry x="1060" y="290" width="240" height="60" as="geometry" />
        </mxCell>
        <mxCell id="vEYwnT2NdRy8BUSH6Dxo-55" value="yes" style="edgeStyle=orthogonalEdgeStyle;rounded=0;orthogonalLoop=1;jettySize=auto;html=1;" parent="Yr1gq1VHMnSCD-bMXYAA-23" source="vEYwnT2NdRy8BUSH6Dxo-53" target="vEYwnT2NdRy8BUSH6Dxo-54" edge="1">
          <mxGeometry relative="1" as="geometry" />
        </mxCell>
        <mxCell id="vEYwnT2NdRy8BUSH6Dxo-58" style="edgeStyle=orthogonalEdgeStyle;rounded=0;orthogonalLoop=1;jettySize=auto;html=1;entryX=0.5;entryY=0;entryDx=0;entryDy=0;" parent="Yr1gq1VHMnSCD-bMXYAA-23" source="vEYwnT2NdRy8BUSH6Dxo-53" target="vEYwnT2NdRy8BUSH6Dxo-57" edge="1">
          <mxGeometry relative="1" as="geometry" />
        </mxCell>
        <mxCell id="vEYwnT2NdRy8BUSH6Dxo-53" value="TLS 활성화?" style="rhombus;whiteSpace=wrap;html=1;" parent="Yr1gq1VHMnSCD-bMXYAA-23" vertex="1">
          <mxGeometry x="1060" y="400" width="240" height="80" as="geometry" />
        </mxCell>
        <mxCell id="vEYwnT2NdRy8BUSH6Dxo-54" value="initSsl()" style="shape=process;whiteSpace=wrap;html=1;backgroundOutline=1;" parent="Yr1gq1VHMnSCD-bMXYAA-23" vertex="1">
          <mxGeometry x="1390" y="400" width="240" height="80" as="geometry" />
        </mxCell>
        <mxCell id="vEYwnT2NdRy8BUSH6Dxo-64" style="edgeStyle=orthogonalEdgeStyle;rounded=0;orthogonalLoop=1;jettySize=auto;html=1;" parent="Yr1gq1VHMnSCD-bMXYAA-23" source="vEYwnT2NdRy8BUSH6Dxo-57" target="vEYwnT2NdRy8BUSH6Dxo-63" edge="1">
          <mxGeometry relative="1" as="geometry" />
        </mxCell>
        <mxCell id="vEYwnT2NdRy8BUSH6Dxo-57" value="OpenFlow Listener 등록&lt;br&gt;(INSERT, REMOVE, 기타, Exception echo 구현)&amp;nbsp;" style="rounded=1;whiteSpace=wrap;html=1;" parent="Yr1gq1VHMnSCD-bMXYAA-23" vertex="1">
          <mxGeometry x="1040" y="540" width="280" height="60" as="geometry" />
        </mxCell>
        <mxCell id="vEYwnT2NdRy8BUSH6Dxo-63" value="addListeningPorts(ports)" style="shape=process;whiteSpace=wrap;html=1;backgroundOutline=1;" parent="Yr1gq1VHMnSCD-bMXYAA-23" vertex="1">
          <mxGeometry x="1040" y="690" width="280" height="80" as="geometry" />
        </mxCell>
        <mxCell id="ZxU1BofiS5UZ1Z1j9jdf-11" style="edgeStyle=orthogonalEdgeStyle;rounded=0;orthogonalLoop=1;jettySize=auto;html=1;entryX=0.5;entryY=0;entryDx=0;entryDy=0;" parent="Yr1gq1VHMnSCD-bMXYAA-23" source="ZxU1BofiS5UZ1Z1j9jdf-0" target="ZxU1BofiS5UZ1Z1j9jdf-4" edge="1">
          <mxGeometry relative="1" as="geometry" />
        </mxCell>
        <mxCell id="ZxU1BofiS5UZ1Z1j9jdf-0" value="addListeningPorts(ports)" style="shape=process;whiteSpace=wrap;html=1;backgroundOutline=1;" parent="Yr1gq1VHMnSCD-bMXYAA-23" vertex="1">
          <mxGeometry x="1710" y="60" width="280" height="80" as="geometry" />
        </mxCell>
        <mxCell id="ZxU1BofiS5UZ1Z1j9jdf-9" style="edgeStyle=orthogonalEdgeStyle;rounded=0;orthogonalLoop=1;jettySize=auto;html=1;entryX=0.5;entryY=0;entryDx=0;entryDy=0;" parent="Yr1gq1VHMnSCD-bMXYAA-23" source="ZxU1BofiS5UZ1Z1j9jdf-4" target="ZxU1BofiS5UZ1Z1j9jdf-6" edge="1">
          <mxGeometry relative="1" as="geometry" />
        </mxCell>
        <mxCell id="ZxU1BofiS5UZ1Z1j9jdf-4" value="bootstrap = createServerBootStrap()&lt;br&gt;: port 별 - Queue 맵핑 및 BootStrap셋팅" style="shape=process;whiteSpace=wrap;html=1;backgroundOutline=1;" parent="Yr1gq1VHMnSCD-bMXYAA-23" vertex="1">
          <mxGeometry x="1710" y="190" width="280" height="80" as="geometry" />
        </mxCell>
        <mxCell id="ZxU1BofiS5UZ1Z1j9jdf-98" style="edgeStyle=orthogonalEdgeStyle;rounded=0;orthogonalLoop=1;jettySize=auto;html=1;entryX=0.5;entryY=0;entryDx=0;entryDy=0;" parent="Yr1gq1VHMnSCD-bMXYAA-23" source="ZxU1BofiS5UZ1Z1j9jdf-6" target="ZxU1BofiS5UZ1Z1j9jdf-10" edge="1">
          <mxGeometry relative="1" as="geometry" />
        </mxCell>
        <mxCell id="ZxU1BofiS5UZ1Z1j9jdf-6" value="main : Reuse-addr 옵션&lt;br&gt;child : keep-alive, send buffer size, tcp no delay 옵션&lt;br&gt;적용" style="rounded=1;whiteSpace=wrap;html=1;" parent="Yr1gq1VHMnSCD-bMXYAA-23" vertex="1">
          <mxGeometry x="1710" y="330" width="280" height="60" as="geometry" />
        </mxCell>
        <mxCell id="ZxU1BofiS5UZ1Z1j9jdf-99" style="edgeStyle=orthogonalEdgeStyle;rounded=0;orthogonalLoop=1;jettySize=auto;html=1;entryX=0;entryY=0.5;entryDx=0;entryDy=0;" parent="Yr1gq1VHMnSCD-bMXYAA-23" source="ZxU1BofiS5UZ1Z1j9jdf-10" target="ZxU1BofiS5UZ1Z1j9jdf-12" edge="1">
          <mxGeometry relative="1" as="geometry" />
        </mxCell>
        <mxCell id="ZxU1BofiS5UZ1Z1j9jdf-101" style="edgeStyle=orthogonalEdgeStyle;rounded=0;orthogonalLoop=1;jettySize=auto;html=1;entryX=0.5;entryY=0;entryDx=0;entryDy=0;" parent="Yr1gq1VHMnSCD-bMXYAA-23" source="ZxU1BofiS5UZ1Z1j9jdf-10" target="ZxU1BofiS5UZ1Z1j9jdf-100" edge="1">
          <mxGeometry relative="1" as="geometry" />
        </mxCell>
        <mxCell id="ZxU1BofiS5UZ1Z1j9jdf-10" value="ChildHandler마다 OFChannelInitializer 등록" style="rounded=1;whiteSpace=wrap;html=1;" parent="Yr1gq1VHMnSCD-bMXYAA-23" vertex="1">
          <mxGeometry x="1710" y="445" width="280" height="60" as="geometry" />
        </mxCell>
        <mxCell id="ZxU1BofiS5UZ1Z1j9jdf-90" style="edgeStyle=orthogonalEdgeStyle;rounded=0;orthogonalLoop=1;jettySize=auto;html=1;" parent="Yr1gq1VHMnSCD-bMXYAA-23" source="ZxU1BofiS5UZ1Z1j9jdf-12" target="ZxU1BofiS5UZ1Z1j9jdf-87" edge="1">
          <mxGeometry relative="1" as="geometry" />
        </mxCell>
        <mxCell id="ZxU1BofiS5UZ1Z1j9jdf-12" value="initChannel()" style="rounded=1;whiteSpace=wrap;html=1;" parent="Yr1gq1VHMnSCD-bMXYAA-23" vertex="1">
          <mxGeometry x="2155" y="70" width="215" height="60" as="geometry" />
        </mxCell>
        <mxCell id="ZxU1BofiS5UZ1Z1j9jdf-92" style="edgeStyle=orthogonalEdgeStyle;rounded=0;orthogonalLoop=1;jettySize=auto;html=1;" parent="Yr1gq1VHMnSCD-bMXYAA-23" source="ZxU1BofiS5UZ1Z1j9jdf-87" target="ZxU1BofiS5UZ1Z1j9jdf-91" edge="1">
          <mxGeometry relative="1" as="geometry" />
        </mxCell>
        <mxCell id="ZxU1BofiS5UZ1Z1j9jdf-94" style="edgeStyle=orthogonalEdgeStyle;rounded=0;orthogonalLoop=1;jettySize=auto;html=1;entryX=0.5;entryY=0;entryDx=0;entryDy=0;" parent="Yr1gq1VHMnSCD-bMXYAA-23" source="ZxU1BofiS5UZ1Z1j9jdf-87" target="ZxU1BofiS5UZ1Z1j9jdf-93" edge="1">
          <mxGeometry relative="1" as="geometry" />
        </mxCell>
        <mxCell id="ZxU1BofiS5UZ1Z1j9jdf-87" value="SSL 활성화?" style="rhombus;whiteSpace=wrap;html=1;" parent="Yr1gq1VHMnSCD-bMXYAA-23" vertex="1">
          <mxGeometry x="2156" y="191" width="212.5" height="80" as="geometry" />
        </mxCell>
        <mxCell id="ZxU1BofiS5UZ1Z1j9jdf-91" value="OpenFlow SSL disabled. 출력" style="rounded=1;whiteSpace=wrap;html=1;" parent="Yr1gq1VHMnSCD-bMXYAA-23" vertex="1">
          <mxGeometry x="2446" y="201" width="215" height="60" as="geometry" />
        </mxCell>
        <mxCell id="ZxU1BofiS5UZ1Z1j9jdf-97" style="edgeStyle=orthogonalEdgeStyle;rounded=0;orthogonalLoop=1;jettySize=auto;html=1;entryX=0.5;entryY=0;entryDx=0;entryDy=0;" parent="Yr1gq1VHMnSCD-bMXYAA-23" source="ZxU1BofiS5UZ1Z1j9jdf-93" target="ZxU1BofiS5UZ1Z1j9jdf-95" edge="1">
          <mxGeometry relative="1" as="geometry" />
        </mxCell>
        <mxCell id="ZxU1BofiS5UZ1Z1j9jdf-93" value="SSL Engine 및 Handler 설정" style="rounded=1;whiteSpace=wrap;html=1;" parent="Yr1gq1VHMnSCD-bMXYAA-23" vertex="1">
          <mxGeometry x="2155" y="320" width="215" height="60" as="geometry" />
        </mxCell>
        <mxCell id="ZxU1BofiS5UZ1Z1j9jdf-95" value="OFMessageDecode, &lt;br&gt;OFMessageEncoder,&amp;nbsp; &lt;br&gt;FlushConsolidationHandler, IdleStateHandler, &lt;br&gt;ReadTimeoutHandler,&lt;br&gt;HandShakeTimeoutHandler&amp;nbsp;&lt;br&gt;handler&lt;br&gt;순서로 등록" style="rounded=1;whiteSpace=wrap;html=1;" parent="Yr1gq1VHMnSCD-bMXYAA-23" vertex="1">
          <mxGeometry x="2154.75" y="470" width="215" height="130" as="geometry" />
        </mxCell>
        <mxCell id="ZxU1BofiS5UZ1Z1j9jdf-103" style="edgeStyle=orthogonalEdgeStyle;rounded=0;orthogonalLoop=1;jettySize=auto;html=1;entryX=0.5;entryY=0;entryDx=0;entryDy=0;" parent="Yr1gq1VHMnSCD-bMXYAA-23" source="ZxU1BofiS5UZ1Z1j9jdf-100" target="ZxU1BofiS5UZ1Z1j9jdf-102" edge="1">
          <mxGeometry relative="1" as="geometry" />
        </mxCell>
        <mxCell id="ZxU1BofiS5UZ1Z1j9jdf-100" value="채널 그룹에 이미 존재하는 포트 모두 제거" style="rounded=1;whiteSpace=wrap;html=1;" parent="Yr1gq1VHMnSCD-bMXYAA-23" vertex="1">
          <mxGeometry x="1710" y="570" width="280" height="60" as="geometry" />
        </mxCell>
        <mxCell id="ZxU1BofiS5UZ1Z1j9jdf-102" value="디폴트 폴트 : 6633, 6653 Connection listening" style="rounded=1;whiteSpace=wrap;html=1;" parent="Yr1gq1VHMnSCD-bMXYAA-23" vertex="1">
          <mxGeometry x="1710" y="690" width="280" height="60" as="geometry" />
        </mxCell>
        <mxCell id="pRcQAlQp7p_SNrFVslkO-46" value="" style="endArrow=none;html=1;exitX=0.024;exitY=0.878;exitDx=0;exitDy=0;exitPerimeter=0;" parent="aC73XDsIqKG3hUR2DNnT-1" source="Yr1gq1VHMnSCD-bMXYAA-21" edge="1">
          <mxGeometry width="50" height="50" relative="1" as="geometry">
            <mxPoint x="400" y="-300" as="sourcePoint" />
            <mxPoint x="400" y="-246" as="targetPoint" />
          </mxGeometry>
        </mxCell>
      </root>
    </mxGraphModel>
  </diagram>
  <diagram id="qPp2XfGAAehy_coyhPgD" name="openflow-base2">
    <mxGraphModel dx="2132" dy="1986" grid="1" gridSize="10" guides="1" tooltips="1" connect="1" arrows="1" fold="1" page="1" pageScale="1" pageWidth="827" pageHeight="1169" math="0" shadow="0">
      <root>
        <mxCell id="sDC5LX49YpHty5naH2eY-0" />
        <mxCell id="sDC5LX49YpHty5naH2eY-1" parent="sDC5LX49YpHty5naH2eY-0" />
        <mxCell id="vN-ww2eZi2ijpg-8VlBp-0" value="openflow-base" style="shape=table;childLayout=tableLayout;rowLines=0;columnLines=0;startSize=40;html=1;whiteSpace=wrap;collapsible=0;recursiveResize=0;expand=0;pointerEvents=0;fontStyle=0;align=center;rounded=0;" parent="sDC5LX49YpHty5naH2eY-1" vertex="1">
          <mxGeometry x="-40" y="-1120" width="2640" height="990" as="geometry" />
        </mxCell>
        <mxCell id="vN-ww2eZi2ijpg-8VlBp-1" style="swimlane;horizontal=0;points=[[0,0.5],[1,0.5]];portConstraint=eastwest;startSize=40;html=1;whiteSpace=wrap;collapsible=0;recursiveResize=0;expand=0;pointerEvents=0;" parent="vN-ww2eZi2ijpg-8VlBp-0" vertex="1">
          <mxGeometry y="40" width="2640" height="950" as="geometry" />
        </mxCell>
        <mxCell id="vN-ww2eZi2ijpg-8VlBp-2" value="" style="swimlane;connectable=0;startSize=20;html=1;whiteSpace=wrap;collapsible=0;recursiveResize=0;expand=0;pointerEvents=0;align=center;" parent="vN-ww2eZi2ijpg-8VlBp-1" vertex="1">
          <mxGeometry x="40" width="2326" height="950" as="geometry" />
        </mxCell>
        <mxCell id="vN-ww2eZi2ijpg-8VlBp-3" style="edgeStyle=orthogonalEdgeStyle;rounded=0;orthogonalLoop=1;jettySize=auto;html=1;entryX=0.5;entryY=0;entryDx=0;entryDy=0;" parent="vN-ww2eZi2ijpg-8VlBp-2" source="vN-ww2eZi2ijpg-8VlBp-4" target="vN-ww2eZi2ijpg-8VlBp-6" edge="1">
          <mxGeometry relative="1" as="geometry" />
        </mxCell>
        <mxCell id="vN-ww2eZi2ijpg-8VlBp-4" value="app activated" style="rounded=1;whiteSpace=wrap;html=1;" parent="vN-ww2eZi2ijpg-8VlBp-2" vertex="1">
          <mxGeometry x="83" y="65" width="220" height="60" as="geometry" />
        </mxCell>
        <mxCell id="vN-ww2eZi2ijpg-8VlBp-5" style="edgeStyle=orthogonalEdgeStyle;rounded=0;orthogonalLoop=1;jettySize=auto;html=1;entryX=0.5;entryY=0;entryDx=0;entryDy=0;" parent="vN-ww2eZi2ijpg-8VlBp-2" source="vN-ww2eZi2ijpg-8VlBp-6" target="vN-ww2eZi2ijpg-8VlBp-7" edge="1">
          <mxGeometry relative="1" as="geometry" />
        </mxCell>
        <mxCell id="vN-ww2eZi2ijpg-8VlBp-6" value="외부 Propertise 등록" style="rounded=1;whiteSpace=wrap;html=1;" parent="vN-ww2eZi2ijpg-8VlBp-2" vertex="1">
          <mxGeometry x="83" y="175" width="220" height="60" as="geometry" />
        </mxCell>
        <mxCell id="vN-ww2eZi2ijpg-8VlBp-7" value="provider로 현재 class 등록" style="rounded=1;whiteSpace=wrap;html=1;" parent="vN-ww2eZi2ijpg-8VlBp-2" vertex="1">
          <mxGeometry x="83" y="285" width="220" height="60" as="geometry" />
        </mxCell>
        <mxCell id="vN-ww2eZi2ijpg-8VlBp-8" value="" style="endArrow=classic;html=1;exitX=0.5;exitY=1;exitDx=0;exitDy=0;" parent="vN-ww2eZi2ijpg-8VlBp-2" edge="1">
          <mxGeometry width="50" height="50" relative="1" as="geometry">
            <mxPoint x="192.5" y="345" as="sourcePoint" />
            <mxPoint x="192.5" y="395" as="targetPoint" />
          </mxGeometry>
        </mxCell>
        <mxCell id="vN-ww2eZi2ijpg-8VlBp-121" style="edgeStyle=orthogonalEdgeStyle;rounded=0;orthogonalLoop=1;jettySize=auto;html=1;entryX=0;entryY=0.5;entryDx=0;entryDy=0;" parent="vN-ww2eZi2ijpg-8VlBp-2" source="vN-ww2eZi2ijpg-8VlBp-9" target="vN-ww2eZi2ijpg-8VlBp-85" edge="1">
          <mxGeometry relative="1" as="geometry">
            <Array as="points">
              <mxPoint x="410" y="425" />
              <mxPoint x="410" y="90" />
            </Array>
          </mxGeometry>
        </mxCell>
        <mxCell id="vN-ww2eZi2ijpg-8VlBp-9" value="controller에 FlowProvider Listener등록" style="rounded=1;whiteSpace=wrap;html=1;" parent="vN-ww2eZi2ijpg-8VlBp-2" vertex="1">
          <mxGeometry x="73" y="395" width="240" height="60" as="geometry" />
        </mxCell>
        <mxCell id="vN-ww2eZi2ijpg-8VlBp-122" style="edgeStyle=orthogonalEdgeStyle;rounded=0;orthogonalLoop=1;jettySize=auto;html=1;" parent="vN-ww2eZi2ijpg-8VlBp-2" source="vN-ww2eZi2ijpg-8VlBp-85" target="vN-ww2eZi2ijpg-8VlBp-88" edge="1">
          <mxGeometry relative="1" as="geometry" />
        </mxCell>
        <mxCell id="vN-ww2eZi2ijpg-8VlBp-124" style="edgeStyle=orthogonalEdgeStyle;rounded=0;orthogonalLoop=1;jettySize=auto;html=1;" parent="vN-ww2eZi2ijpg-8VlBp-2" source="vN-ww2eZi2ijpg-8VlBp-85" target="vN-ww2eZi2ijpg-8VlBp-123" edge="1">
          <mxGeometry relative="1" as="geometry" />
        </mxCell>
        <mxCell id="vN-ww2eZi2ijpg-8VlBp-127" style="edgeStyle=orthogonalEdgeStyle;rounded=0;orthogonalLoop=1;jettySize=auto;html=1;entryX=0.5;entryY=0;entryDx=0;entryDy=0;" parent="vN-ww2eZi2ijpg-8VlBp-2" source="vN-ww2eZi2ijpg-8VlBp-85" target="vN-ww2eZi2ijpg-8VlBp-87" edge="1">
          <mxGeometry relative="1" as="geometry" />
        </mxCell>
        <mxCell id="vN-ww2eZi2ijpg-8VlBp-85" value="InternnalFlowProvider" style="rounded=1;whiteSpace=wrap;html=1;" parent="vN-ww2eZi2ijpg-8VlBp-2" vertex="1">
          <mxGeometry x="760" y="60" width="240" height="60" as="geometry" />
        </mxCell>
        <mxCell id="vN-ww2eZi2ijpg-8VlBp-87" value="switch Added" style="rounded=1;whiteSpace=wrap;html=1;" parent="vN-ww2eZi2ijpg-8VlBp-2" vertex="1">
          <mxGeometry x="520" y="175" width="240" height="60" as="geometry" />
        </mxCell>
        <mxCell id="vN-ww2eZi2ijpg-8VlBp-88" value="switch Removed" style="rounded=1;whiteSpace=wrap;html=1;" parent="vN-ww2eZi2ijpg-8VlBp-2" vertex="1">
          <mxGeometry x="920" y="175" width="240" height="60" as="geometry" />
        </mxCell>
        <mxCell id="vN-ww2eZi2ijpg-8VlBp-123" value="handleMesage" style="rounded=1;whiteSpace=wrap;html=1;" parent="vN-ww2eZi2ijpg-8VlBp-2" vertex="1">
          <mxGeometry x="1250" y="175" width="240" height="60" as="geometry" />
        </mxCell>
        <mxCell id="vN-ww2eZi2ijpg-8VlBp-126" value="주기적으로 polling stat?" style="rhombus;whiteSpace=wrap;html=1;" parent="vN-ww2eZi2ijpg-8VlBp-2" vertex="1">
          <mxGeometry x="520" y="320" width="240" height="70" as="geometry" />
        </mxCell>
        <mxCell id="vN-ww2eZi2ijpg-8VlBp-125" style="edgeStyle=orthogonalEdgeStyle;rounded=0;orthogonalLoop=1;jettySize=auto;html=1;" parent="vN-ww2eZi2ijpg-8VlBp-2" source="vN-ww2eZi2ijpg-8VlBp-87" target="vN-ww2eZi2ijpg-8VlBp-126" edge="1">
          <mxGeometry relative="1" as="geometry">
            <mxPoint x="730" y="280" as="targetPoint" />
          </mxGeometry>
        </mxCell>
        <mxCell id="vN-ww2eZi2ijpg-8VlBp-130" value="createCollector()" style="shape=process;whiteSpace=wrap;html=1;backgroundOutline=1;" parent="vN-ww2eZi2ijpg-8VlBp-2" vertex="1">
          <mxGeometry x="520" y="450" width="240" height="60" as="geometry" />
        </mxCell>
        <mxCell id="vN-ww2eZi2ijpg-8VlBp-131" value="createCollector(sw)" style="shape=process;whiteSpace=wrap;html=1;backgroundOutline=1;" parent="vN-ww2eZi2ijpg-8VlBp-2" vertex="1">
          <mxGeometry x="1620" y="80" width="240" height="60" as="geometry" />
        </mxCell>
        <mxCell id="vN-ww2eZi2ijpg-8VlBp-134" value="adaptiveFlowSampling?" style="rhombus;whiteSpace=wrap;html=1;" parent="vN-ww2eZi2ijpg-8VlBp-2" vertex="1">
          <mxGeometry x="1620" y="200" width="240" height="80" as="geometry" />
        </mxCell>
        <mxCell id="vN-ww2eZi2ijpg-8VlBp-137" value="FlowStatsCollector 생성 및 sw에&lt;br&gt;해당 collector (이전 collector는 stop)" style="rounded=1;whiteSpace=wrap;html=1;" parent="vN-ww2eZi2ijpg-8VlBp-2" vertex="1">
          <mxGeometry x="1620" y="345" width="240" height="60" as="geometry" />
        </mxCell>
        <mxCell id="vN-ww2eZi2ijpg-8VlBp-136" value="no" style="edgeStyle=orthogonalEdgeStyle;rounded=0;orthogonalLoop=1;jettySize=auto;html=1;entryX=0.5;entryY=0;entryDx=0;entryDy=0;" parent="vN-ww2eZi2ijpg-8VlBp-2" source="vN-ww2eZi2ijpg-8VlBp-134" target="vN-ww2eZi2ijpg-8VlBp-137" edge="1">
          <mxGeometry relative="1" as="geometry">
            <mxPoint x="1740" y="340.0000000000001" as="targetPoint" />
          </mxGeometry>
        </mxCell>
        <mxCell id="vN-ww2eZi2ijpg-8VlBp-139" value="5초 단위 FlowTable Polling&amp;nbsp;" style="rounded=1;whiteSpace=wrap;html=1;" parent="vN-ww2eZi2ijpg-8VlBp-2" vertex="1">
          <mxGeometry x="1620" y="480" width="240" height="60" as="geometry" />
        </mxCell>
        <mxCell id="vN-ww2eZi2ijpg-8VlBp-167" value="NewAdaptiveFlowStatsCollector 생성 및 sw에&lt;br&gt;해당 collector (이전 collector는 stop)" style="rounded=1;whiteSpace=wrap;html=1;" parent="vN-ww2eZi2ijpg-8VlBp-2" vertex="1">
          <mxGeometry x="1900" y="345" width="270" height="60" as="geometry" />
        </mxCell>
        <mxCell id="vN-ww2eZi2ijpg-8VlBp-135" value="yes" style="edgeStyle=orthogonalEdgeStyle;rounded=0;orthogonalLoop=1;jettySize=auto;html=1;" parent="vN-ww2eZi2ijpg-8VlBp-2" source="vN-ww2eZi2ijpg-8VlBp-134" target="vN-ww2eZi2ijpg-8VlBp-167" edge="1">
          <mxGeometry relative="1" as="geometry">
            <mxPoint x="1940" y="240" as="targetPoint" />
          </mxGeometry>
        </mxCell>
        <mxCell id="vN-ww2eZi2ijpg-8VlBp-11" value="OpenflowControllerImpl.java" style="swimlane;connectable=0;startSize=20;html=1;whiteSpace=wrap;collapsible=0;recursiveResize=0;expand=0;pointerEvents=0;align=center;" parent="vN-ww2eZi2ijpg-8VlBp-1" vertex="1">
          <mxGeometry x="2366" width="274" height="950" as="geometry" />
        </mxCell>
        <mxCell id="vN-ww2eZi2ijpg-8VlBp-128" value="yes" style="edgeStyle=orthogonalEdgeStyle;rounded=0;orthogonalLoop=1;jettySize=auto;html=1;" parent="sDC5LX49YpHty5naH2eY-1" source="vN-ww2eZi2ijpg-8VlBp-126" edge="1">
          <mxGeometry relative="1" as="geometry">
            <mxPoint x="640" y="-630" as="targetPoint" />
          </mxGeometry>
        </mxCell>
        <mxCell id="vN-ww2eZi2ijpg-8VlBp-132" style="edgeStyle=orthogonalEdgeStyle;rounded=0;orthogonalLoop=1;jettySize=auto;html=1;" parent="sDC5LX49YpHty5naH2eY-1" source="vN-ww2eZi2ijpg-8VlBp-131" edge="1">
          <mxGeometry relative="1" as="geometry">
            <mxPoint x="1740" y="-880" as="targetPoint" />
          </mxGeometry>
        </mxCell>
        <mxCell id="vN-ww2eZi2ijpg-8VlBp-138" style="edgeStyle=orthogonalEdgeStyle;rounded=0;orthogonalLoop=1;jettySize=auto;html=1;" parent="sDC5LX49YpHty5naH2eY-1" source="vN-ww2eZi2ijpg-8VlBp-137" edge="1">
          <mxGeometry relative="1" as="geometry">
            <mxPoint x="1740" y="-599.9999999999999" as="targetPoint" />
          </mxGeometry>
        </mxCell>
      </root>
    </mxGraphModel>
  </diagram>
  <diagram id="eC3jgqrqnd5Fd9S9brlB" name="lldpProvider">
    <mxGraphModel dx="1967" dy="1875" grid="1" gridSize="10" guides="1" tooltips="1" connect="1" arrows="1" fold="1" page="1" pageScale="1" pageWidth="827" pageHeight="1169" math="0" shadow="0">
      <root>
        <mxCell id="SkbhwHbkE8fWBWR_ipCa-0" />
        <mxCell id="SkbhwHbkE8fWBWR_ipCa-1" parent="SkbhwHbkE8fWBWR_ipCa-0" />
        <mxCell id="ZHizI140NHLcBaaToUWF-0" value="LLDP Provider" style="shape=table;childLayout=tableLayout;rowLines=0;columnLines=0;startSize=40;html=1;whiteSpace=wrap;collapsible=0;recursiveResize=0;expand=0;pointerEvents=0;fontStyle=0;align=center;rounded=0;" parent="SkbhwHbkE8fWBWR_ipCa-1" vertex="1">
          <mxGeometry x="-760" y="-1140" width="6150" height="1290" as="geometry" />
        </mxCell>
        <mxCell id="ZHizI140NHLcBaaToUWF-1" style="swimlane;horizontal=0;points=[[0,0.5],[1,0.5]];portConstraint=eastwest;startSize=40;html=1;whiteSpace=wrap;collapsible=0;recursiveResize=0;expand=0;pointerEvents=0;" parent="ZHizI140NHLcBaaToUWF-0" vertex="1">
          <mxGeometry y="40" width="6150" height="1250" as="geometry" />
        </mxCell>
        <mxCell id="ZHizI140NHLcBaaToUWF-2" value="LldpLinkProvider" style="swimlane;connectable=0;startSize=20;html=1;whiteSpace=wrap;collapsible=0;recursiveResize=0;expand=0;pointerEvents=0;align=center;" parent="ZHizI140NHLcBaaToUWF-1" vertex="1">
          <mxGeometry x="40" width="6020" height="1250" as="geometry" />
        </mxCell>
        <mxCell id="ZHizI140NHLcBaaToUWF-3" style="edgeStyle=orthogonalEdgeStyle;rounded=0;orthogonalLoop=1;jettySize=auto;html=1;entryX=0.5;entryY=0;entryDx=0;entryDy=0;" parent="ZHizI140NHLcBaaToUWF-2" source="ZHizI140NHLcBaaToUWF-4" target="ZHizI140NHLcBaaToUWF-6" edge="1">
          <mxGeometry relative="1" as="geometry" />
        </mxCell>
        <mxCell id="ZHizI140NHLcBaaToUWF-4" value="app activated" style="rounded=1;whiteSpace=wrap;html=1;" parent="ZHizI140NHLcBaaToUWF-2" vertex="1">
          <mxGeometry x="40" y="50" width="220" height="60" as="geometry" />
        </mxCell>
        <mxCell id="ZHizI140NHLcBaaToUWF-5" style="edgeStyle=orthogonalEdgeStyle;rounded=0;orthogonalLoop=1;jettySize=auto;html=1;entryX=0.5;entryY=0;entryDx=0;entryDy=0;" parent="ZHizI140NHLcBaaToUWF-2" source="ZHizI140NHLcBaaToUWF-6" target="ZHizI140NHLcBaaToUWF-7" edge="1">
          <mxGeometry relative="1" as="geometry" />
        </mxCell>
        <mxCell id="ZHizI140NHLcBaaToUWF-6" value="외부 Propertise 등록" style="rounded=1;whiteSpace=wrap;html=1;" parent="ZHizI140NHLcBaaToUWF-2" vertex="1">
          <mxGeometry x="40" y="160" width="220" height="60" as="geometry" />
        </mxCell>
        <mxCell id="ZHizI140NHLcBaaToUWF-7" value="org.onosproject.provider.lldp로 등록" style="rounded=1;whiteSpace=wrap;html=1;" parent="ZHizI140NHLcBaaToUWF-2" vertex="1">
          <mxGeometry x="40" y="270" width="220" height="60" as="geometry" />
        </mxCell>
        <mxCell id="ZHizI140NHLcBaaToUWF-8" value="" style="endArrow=classic;html=1;exitX=0.5;exitY=1;exitDx=0;exitDy=0;" parent="ZHizI140NHLcBaaToUWF-2" edge="1">
          <mxGeometry width="50" height="50" relative="1" as="geometry">
            <mxPoint x="149.5" y="330" as="sourcePoint" />
            <mxPoint x="149.5" y="380" as="targetPoint" />
          </mxGeometry>
        </mxCell>
        <mxCell id="ZHizI140NHLcBaaToUWF-62" style="edgeStyle=orthogonalEdgeStyle;rounded=0;orthogonalLoop=1;jettySize=auto;html=1;entryX=0.5;entryY=0;entryDx=0;entryDy=0;" parent="ZHizI140NHLcBaaToUWF-2" source="ZHizI140NHLcBaaToUWF-10" target="ZHizI140NHLcBaaToUWF-44" edge="1">
          <mxGeometry relative="1" as="geometry" />
        </mxCell>
        <mxCell id="ZHizI140NHLcBaaToUWF-10" value="cfgListener 등록" style="rounded=1;whiteSpace=wrap;html=1;" parent="ZHizI140NHLcBaaToUWF-2" vertex="1">
          <mxGeometry x="30" y="380" width="240" height="50" as="geometry" />
        </mxCell>
        <mxCell id="ZHizI140NHLcBaaToUWF-63" style="edgeStyle=orthogonalEdgeStyle;rounded=0;orthogonalLoop=1;jettySize=auto;html=1;entryX=0.5;entryY=0;entryDx=0;entryDy=0;" parent="ZHizI140NHLcBaaToUWF-2" source="ZHizI140NHLcBaaToUWF-44" target="ZHizI140NHLcBaaToUWF-51" edge="1">
          <mxGeometry relative="1" as="geometry" />
        </mxCell>
        <mxCell id="ZHizI140NHLcBaaToUWF-44" value="각 Factory 등록&lt;br&gt;ApplicationID - SuppressionConfig&lt;br&gt;DeviceID - LinkDiscoveryFromDevice&lt;br&gt;ConnectPoint - LinkDiscoveryFromPort" style="rounded=1;whiteSpace=wrap;html=1;" parent="ZHizI140NHLcBaaToUWF-2" vertex="1">
          <mxGeometry x="30" y="495" width="240" height="60" as="geometry" />
        </mxCell>
        <mxCell id="ZHizI140NHLcBaaToUWF-46" value="SuppressionConfig&amp;nbsp;&lt;br&gt;1.&amp;nbsp; ApplicationID&lt;br&gt;2. DEVICE_TYPES&lt;br&gt;3. ANNOTATION" style="rounded=0;whiteSpace=wrap;html=1;align=left;shadow=1;" parent="ZHizI140NHLcBaaToUWF-2" vertex="1">
          <mxGeometry x="480" y="440" width="240" height="60" as="geometry" />
        </mxCell>
        <mxCell id="ZHizI140NHLcBaaToUWF-47" value="LinkDiscoveryFromDeivce, Port&lt;br&gt;- ENABLED&lt;br&gt;- defaultValue" style="rounded=0;whiteSpace=wrap;html=1;align=left;shadow=1;" parent="ZHizI140NHLcBaaToUWF-2" vertex="1">
          <mxGeometry x="480" y="530" width="240" height="60" as="geometry" />
        </mxCell>
        <mxCell id="ZHizI140NHLcBaaToUWF-64" style="edgeStyle=orthogonalEdgeStyle;rounded=0;orthogonalLoop=1;jettySize=auto;html=1;entryX=0.5;entryY=0;entryDx=0;entryDy=0;" parent="ZHizI140NHLcBaaToUWF-2" source="ZHizI140NHLcBaaToUWF-51" target="ZHizI140NHLcBaaToUWF-54" edge="1">
          <mxGeometry relative="1" as="geometry" />
        </mxCell>
        <mxCell id="ZHizI140NHLcBaaToUWF-68" style="edgeStyle=orthogonalEdgeStyle;rounded=0;orthogonalLoop=1;jettySize=auto;html=1;" parent="ZHizI140NHLcBaaToUWF-2" source="ZHizI140NHLcBaaToUWF-51" target="ZHizI140NHLcBaaToUWF-67" edge="1">
          <mxGeometry relative="1" as="geometry" />
        </mxCell>
        <mxCell id="ZHizI140NHLcBaaToUWF-51" value="등록된 SuppresionConfig가 null?" style="rhombus;whiteSpace=wrap;html=1;align=center;" parent="ZHizI140NHLcBaaToUWF-2" vertex="1">
          <mxGeometry x="32.5" y="610" width="235" height="80" as="geometry" />
        </mxCell>
        <mxCell id="ZHizI140NHLcBaaToUWF-66" style="edgeStyle=orthogonalEdgeStyle;rounded=0;orthogonalLoop=1;jettySize=auto;html=1;entryX=0.5;entryY=0;entryDx=0;entryDy=0;" parent="ZHizI140NHLcBaaToUWF-2" source="ZHizI140NHLcBaaToUWF-54" target="ZHizI140NHLcBaaToUWF-65" edge="1">
          <mxGeometry relative="1" as="geometry" />
        </mxCell>
        <mxCell id="ZHizI140NHLcBaaToUWF-54" value="cfg =&amp;nbsp;&lt;br&gt;device_Type = {ROADM, FIBER_SWITCH, OPTICAL_AMPLIFIER, OTN, OLS, TERMINAL_DEVICE}&lt;br&gt;annotation = MAP&amp;lt;NO_LLDP, ANY_VALUE&amp;gt;&lt;br&gt;로 Suppresion 초기화(Default)" style="rounded=1;whiteSpace=wrap;html=1;" parent="ZHizI140NHLcBaaToUWF-2" vertex="1">
          <mxGeometry x="30" y="730" width="240" height="90" as="geometry" />
        </mxCell>
        <mxCell id="Lcaw0XBJI9Y2ALR-tkjC-12" style="edgeStyle=orthogonalEdgeStyle;rounded=0;orthogonalLoop=1;jettySize=auto;html=1;entryX=0.5;entryY=0;entryDx=0;entryDy=0;" parent="ZHizI140NHLcBaaToUWF-2" source="ZHizI140NHLcBaaToUWF-65" target="ZHizI140NHLcBaaToUWF-72" edge="1">
          <mxGeometry relative="1" as="geometry" />
        </mxCell>
        <mxCell id="ZHizI140NHLcBaaToUWF-65" value="cfgListener의 config를 cfg로 재설정" style="rounded=1;whiteSpace=wrap;html=1;align=center;" parent="ZHizI140NHLcBaaToUWF-2" vertex="1">
          <mxGeometry x="30" y="870" width="240" height="60" as="geometry" />
        </mxCell>
        <mxCell id="ZHizI140NHLcBaaToUWF-69" style="edgeStyle=orthogonalEdgeStyle;rounded=0;orthogonalLoop=1;jettySize=auto;html=1;entryX=1;entryY=0.5;entryDx=0;entryDy=0;exitX=0.5;exitY=1;exitDx=0;exitDy=0;" parent="ZHizI140NHLcBaaToUWF-2" source="ZHizI140NHLcBaaToUWF-67" target="ZHizI140NHLcBaaToUWF-65" edge="1">
          <mxGeometry relative="1" as="geometry" />
        </mxCell>
        <mxCell id="ZHizI140NHLcBaaToUWF-67" value="cfg = 등록된 SupressionConfig" style="rounded=1;whiteSpace=wrap;html=1;" parent="ZHizI140NHLcBaaToUWF-2" vertex="1">
          <mxGeometry x="310" y="627.5" width="240" height="45" as="geometry" />
        </mxCell>
        <mxCell id="Lcaw0XBJI9Y2ALR-tkjC-13" value="yes" style="edgeStyle=orthogonalEdgeStyle;rounded=0;orthogonalLoop=1;jettySize=auto;html=1;entryX=0.5;entryY=0;entryDx=0;entryDy=0;" parent="ZHizI140NHLcBaaToUWF-2" source="ZHizI140NHLcBaaToUWF-72" target="ZHizI140NHLcBaaToUWF-74" edge="1">
          <mxGeometry relative="1" as="geometry" />
        </mxCell>
        <mxCell id="ZHizI140NHLcBaaToUWF-72" value="ClusterMetaService가&amp;nbsp;&lt;br&gt;null이 아니라면?" style="rhombus;whiteSpace=wrap;html=1;align=center;" parent="ZHizI140NHLcBaaToUWF-2" vertex="1">
          <mxGeometry x="32.5" y="1010" width="235" height="80" as="geometry" />
        </mxCell>
        <mxCell id="Lcaw0XBJI9Y2ALR-tkjC-14" style="edgeStyle=orthogonalEdgeStyle;rounded=0;orthogonalLoop=1;jettySize=auto;html=1;entryX=0;entryY=0.5;entryDx=0;entryDy=0;" parent="ZHizI140NHLcBaaToUWF-2" source="ZHizI140NHLcBaaToUWF-74" target="ZHizI140NHLcBaaToUWF-76" edge="1">
          <mxGeometry relative="1" as="geometry" />
        </mxCell>
        <mxCell id="ZHizI140NHLcBaaToUWF-74" value="metadataListener 등&lt;br&gt;현재 메타데이터 SET" style="rounded=1;whiteSpace=wrap;html=1;align=center;" parent="ZHizI140NHLcBaaToUWF-2" vertex="1">
          <mxGeometry x="30" y="1150" width="240" height="60" as="geometry" />
        </mxCell>
        <mxCell id="ZHizI140NHLcBaaToUWF-78" style="edgeStyle=orthogonalEdgeStyle;rounded=0;orthogonalLoop=1;jettySize=auto;html=1;entryX=0;entryY=0.5;entryDx=0;entryDy=0;" parent="ZHizI140NHLcBaaToUWF-2" source="ZHizI140NHLcBaaToUWF-76" target="ZHizI140NHLcBaaToUWF-77" edge="1">
          <mxGeometry relative="1" as="geometry">
            <Array as="points">
              <mxPoint x="770" y="1180" />
              <mxPoint x="770" y="130" />
            </Array>
          </mxGeometry>
        </mxCell>
        <mxCell id="ZHizI140NHLcBaaToUWF-76" value="modified()" style="shape=process;whiteSpace=wrap;html=1;backgroundOutline=1;align=center;" parent="ZHizI140NHLcBaaToUWF-2" vertex="1">
          <mxGeometry x="350" y="1150" width="230" height="60" as="geometry" />
        </mxCell>
        <mxCell id="ZHizI140NHLcBaaToUWF-81" style="edgeStyle=orthogonalEdgeStyle;rounded=0;orthogonalLoop=1;jettySize=auto;html=1;entryX=0.5;entryY=0;entryDx=0;entryDy=0;" parent="ZHizI140NHLcBaaToUWF-2" source="ZHizI140NHLcBaaToUWF-77" target="ZHizI140NHLcBaaToUWF-80" edge="1">
          <mxGeometry relative="1" as="geometry" />
        </mxCell>
        <mxCell id="ZHizI140NHLcBaaToUWF-77" value="modified(context)" style="shape=process;whiteSpace=wrap;html=1;backgroundOutline=1;align=center;" parent="ZHizI140NHLcBaaToUWF-2" vertex="1">
          <mxGeometry x="860" y="100" width="230" height="60" as="geometry" />
        </mxCell>
        <mxCell id="Lcaw0XBJI9Y2ALR-tkjC-1" style="edgeStyle=orthogonalEdgeStyle;rounded=0;orthogonalLoop=1;jettySize=auto;html=1;entryX=0.5;entryY=0;entryDx=0;entryDy=0;" parent="ZHizI140NHLcBaaToUWF-2" source="ZHizI140NHLcBaaToUWF-80" target="Lcaw0XBJI9Y2ALR-tkjC-0" edge="1">
          <mxGeometry relative="1" as="geometry" />
        </mxCell>
        <mxCell id="ZHizI140NHLcBaaToUWF-80" value="PROP_ENABLED&lt;br&gt;PRO_USE_BDDP&lt;br&gt;PROP_PROBE_RATE&lt;br&gt;PROP_STALE_LINK_AGE&lt;br&gt;PROP_DISCOVERY_DELAY&lt;br&gt;PROP_USE_STALE_LINK_AGE&lt;br&gt;new 값으로 SET" style="rounded=1;whiteSpace=wrap;html=1;shadow=0;align=center;" parent="ZHizI140NHLcBaaToUWF-2" vertex="1">
          <mxGeometry x="860" y="220" width="230" height="110" as="geometry" />
        </mxCell>
        <mxCell id="Lcaw0XBJI9Y2ALR-tkjC-3" value="no" style="edgeStyle=orthogonalEdgeStyle;rounded=0;orthogonalLoop=1;jettySize=auto;html=1;" parent="ZHizI140NHLcBaaToUWF-2" source="Lcaw0XBJI9Y2ALR-tkjC-0" target="Lcaw0XBJI9Y2ALR-tkjC-2" edge="1">
          <mxGeometry relative="1" as="geometry" />
        </mxCell>
        <mxCell id="Lcaw0XBJI9Y2ALR-tkjC-5" style="edgeStyle=orthogonalEdgeStyle;rounded=0;orthogonalLoop=1;jettySize=auto;html=1;entryX=0;entryY=0.5;entryDx=0;entryDy=0;" parent="ZHizI140NHLcBaaToUWF-2" source="Lcaw0XBJI9Y2ALR-tkjC-0" target="Lcaw0XBJI9Y2ALR-tkjC-4" edge="1">
          <mxGeometry relative="1" as="geometry" />
        </mxCell>
        <mxCell id="Lcaw0XBJI9Y2ALR-tkjC-0" value="!wasEnabled &amp;amp;&amp;amp; enabled" style="rhombus;whiteSpace=wrap;html=1;rounded=0;shadow=0;align=center;" parent="ZHizI140NHLcBaaToUWF-2" vertex="1">
          <mxGeometry x="860" y="390" width="230" height="80" as="geometry" />
        </mxCell>
        <mxCell id="Lcaw0XBJI9Y2ALR-tkjC-7" style="edgeStyle=orthogonalEdgeStyle;rounded=0;orthogonalLoop=1;jettySize=auto;html=1;entryX=0;entryY=0.5;entryDx=0;entryDy=0;" parent="ZHizI140NHLcBaaToUWF-2" source="Lcaw0XBJI9Y2ALR-tkjC-2" target="Lcaw0XBJI9Y2ALR-tkjC-6" edge="1">
          <mxGeometry relative="1" as="geometry" />
        </mxCell>
        <mxCell id="Lcaw0XBJI9Y2ALR-tkjC-15" style="edgeStyle=orthogonalEdgeStyle;rounded=0;orthogonalLoop=1;jettySize=auto;html=1;entryX=0.5;entryY=0;entryDx=0;entryDy=0;" parent="ZHizI140NHLcBaaToUWF-2" source="Lcaw0XBJI9Y2ALR-tkjC-2" target="Lcaw0XBJI9Y2ALR-tkjC-9" edge="1">
          <mxGeometry relative="1" as="geometry" />
        </mxCell>
        <mxCell id="Lcaw0XBJI9Y2ALR-tkjC-2" value="wasEnabled &amp;amp;&amp;amp; !enabled" style="rhombus;whiteSpace=wrap;html=1;rounded=0;shadow=0;align=center;" parent="ZHizI140NHLcBaaToUWF-2" vertex="1">
          <mxGeometry x="860" y="520" width="230" height="80" as="geometry" />
        </mxCell>
        <mxCell id="Lcaw0XBJI9Y2ALR-tkjC-4" value="enable()" style="shape=process;whiteSpace=wrap;html=1;backgroundOutline=1;rounded=0;shadow=0;align=center;" parent="ZHizI140NHLcBaaToUWF-2" vertex="1">
          <mxGeometry x="1160" y="400" width="170" height="60" as="geometry" />
        </mxCell>
        <mxCell id="Lcaw0XBJI9Y2ALR-tkjC-6" value="enable()" style="shape=process;whiteSpace=wrap;html=1;backgroundOutline=1;rounded=0;shadow=0;align=center;" parent="ZHizI140NHLcBaaToUWF-2" vertex="1">
          <mxGeometry x="1160" y="530" width="170" height="60" as="geometry" />
        </mxCell>
        <mxCell id="Lcaw0XBJI9Y2ALR-tkjC-9" value="loadDevice()" style="shape=process;whiteSpace=wrap;html=1;backgroundOutline=1;rounded=0;shadow=0;align=center;" parent="ZHizI140NHLcBaaToUWF-2" vertex="1">
          <mxGeometry x="887.5" y="660" width="175" height="60" as="geometry" />
        </mxCell>
        <mxCell id="rENEluaZXUTk5z5Bo74Q-102" style="edgeStyle=orthogonalEdgeStyle;rounded=0;orthogonalLoop=1;jettySize=auto;html=1;entryX=0.5;entryY=0;entryDx=0;entryDy=0;" parent="ZHizI140NHLcBaaToUWF-2" source="Lcaw0XBJI9Y2ALR-tkjC-10" target="rENEluaZXUTk5z5Bo74Q-43" edge="1">
          <mxGeometry relative="1" as="geometry" />
        </mxCell>
        <mxCell id="Lcaw0XBJI9Y2ALR-tkjC-10" value="enable()" style="shape=process;whiteSpace=wrap;html=1;backgroundOutline=1;rounded=0;shadow=0;align=center;" parent="ZHizI140NHLcBaaToUWF-2" vertex="1">
          <mxGeometry x="1430" y="100" width="210" height="60" as="geometry" />
        </mxCell>
        <mxCell id="rENEluaZXUTk5z5Bo74Q-45" style="edgeStyle=orthogonalEdgeStyle;rounded=0;orthogonalLoop=1;jettySize=auto;html=1;entryX=0.5;entryY=0;entryDx=0;entryDy=0;" parent="ZHizI140NHLcBaaToUWF-2" source="rENEluaZXUTk5z5Bo74Q-43" target="rENEluaZXUTk5z5Bo74Q-44" edge="1">
          <mxGeometry relative="1" as="geometry" />
        </mxCell>
        <mxCell id="rENEluaZXUTk5z5Bo74Q-43" value="현재 class를 provider로 등록" style="rounded=1;whiteSpace=wrap;html=1;" parent="ZHizI140NHLcBaaToUWF-2" vertex="1">
          <mxGeometry x="1430" y="205.5" width="210" height="50" as="geometry" />
        </mxCell>
        <mxCell id="rENEluaZXUTk5z5Bo74Q-95" style="edgeStyle=orthogonalEdgeStyle;rounded=0;orthogonalLoop=1;jettySize=auto;html=1;entryX=0.5;entryY=0;entryDx=0;entryDy=0;" parent="ZHizI140NHLcBaaToUWF-2" source="rENEluaZXUTk5z5Bo74Q-44" target="rENEluaZXUTk5z5Bo74Q-94" edge="1">
          <mxGeometry relative="1" as="geometry" />
        </mxCell>
        <mxCell id="rENEluaZXUTk5z5Bo74Q-44" value="roleListener 등록" style="rounded=1;whiteSpace=wrap;html=1;" parent="ZHizI140NHLcBaaToUWF-2" vertex="1">
          <mxGeometry x="1430" y="300" width="210" height="50" as="geometry" />
        </mxCell>
        <mxCell id="rENEluaZXUTk5z5Bo74Q-97" style="edgeStyle=orthogonalEdgeStyle;rounded=0;orthogonalLoop=1;jettySize=auto;html=1;entryX=0.5;entryY=0;entryDx=0;entryDy=0;" parent="ZHizI140NHLcBaaToUWF-2" source="rENEluaZXUTk5z5Bo74Q-94" target="rENEluaZXUTk5z5Bo74Q-96" edge="1">
          <mxGeometry relative="1" as="geometry" />
        </mxCell>
        <mxCell id="rENEluaZXUTk5z5Bo74Q-94" value="deviceListener 등록" style="rounded=1;whiteSpace=wrap;html=1;" parent="ZHizI140NHLcBaaToUWF-2" vertex="1">
          <mxGeometry x="1430" y="396" width="210" height="50" as="geometry" />
        </mxCell>
        <mxCell id="rENEluaZXUTk5z5Bo74Q-159" style="edgeStyle=orthogonalEdgeStyle;rounded=0;orthogonalLoop=1;jettySize=auto;html=1;entryX=0.5;entryY=0;entryDx=0;entryDy=0;" parent="ZHizI140NHLcBaaToUWF-2" source="rENEluaZXUTk5z5Bo74Q-96" target="rENEluaZXUTk5z5Bo74Q-99" edge="1">
          <mxGeometry relative="1" as="geometry" />
        </mxCell>
        <mxCell id="rENEluaZXUTk5z5Bo74Q-96" value="packetProcessor 등록" style="rounded=1;whiteSpace=wrap;html=1;" parent="ZHizI140NHLcBaaToUWF-2" vertex="1">
          <mxGeometry x="1430" y="490" width="210" height="50" as="geometry" />
        </mxCell>
        <mxCell id="vvLd60g7PyFA4-DbAIz2-1" style="edgeStyle=orthogonalEdgeStyle;rounded=0;orthogonalLoop=1;jettySize=auto;html=1;entryX=0.5;entryY=0;entryDx=0;entryDy=0;" parent="ZHizI140NHLcBaaToUWF-2" source="rENEluaZXUTk5z5Bo74Q-99" target="vvLd60g7PyFA4-DbAIz2-0" edge="1">
          <mxGeometry relative="1" as="geometry" />
        </mxCell>
        <mxCell id="rENEluaZXUTk5z5Bo74Q-99" value="loadDevices()" style="shape=process;whiteSpace=wrap;html=1;backgroundOutline=1;rounded=0;shadow=0;align=center;" parent="ZHizI140NHLcBaaToUWF-2" vertex="1">
          <mxGeometry x="1431" y="590" width="208" height="60" as="geometry" />
        </mxCell>
        <mxCell id="vvLd60g7PyFA4-DbAIz2-119" style="edgeStyle=orthogonalEdgeStyle;rounded=0;orthogonalLoop=1;jettySize=auto;html=1;" parent="ZHizI140NHLcBaaToUWF-2" source="vvLd60g7PyFA4-DbAIz2-0" target="vvLd60g7PyFA4-DbAIz2-59" edge="1">
          <mxGeometry relative="1" as="geometry" />
        </mxCell>
        <mxCell id="vvLd60g7PyFA4-DbAIz2-0" value="executor = newSingleThreadScheduledExcutor(&lt;br&gt;groupThreads(&quot;onos/link&quot;, &quot;discovery-%d&quot;, log))&lt;br&gt;: executor 생성" style="rounded=1;whiteSpace=wrap;html=1;" parent="ZHizI140NHLcBaaToUWF-2" vertex="1">
          <mxGeometry x="1430" y="700" width="210" height="70" as="geometry" />
        </mxCell>
        <mxCell id="vvLd60g7PyFA4-DbAIz2-120" style="edgeStyle=orthogonalEdgeStyle;rounded=0;orthogonalLoop=1;jettySize=auto;html=1;entryX=0.5;entryY=0;entryDx=0;entryDy=0;" parent="ZHizI140NHLcBaaToUWF-2" source="vvLd60g7PyFA4-DbAIz2-59" target="vvLd60g7PyFA4-DbAIz2-118" edge="1">
          <mxGeometry relative="1" as="geometry" />
        </mxCell>
        <mxCell id="vvLd60g7PyFA4-DbAIz2-59" value="excutor에 5초마다 SyncDeviceInfoTask() 실행" style="rounded=1;whiteSpace=wrap;html=1;" parent="ZHizI140NHLcBaaToUWF-2" vertex="1">
          <mxGeometry x="1430" y="830" width="210" height="70" as="geometry" />
        </mxCell>
        <mxCell id="vvLd60g7PyFA4-DbAIz2-122" style="edgeStyle=orthogonalEdgeStyle;rounded=0;orthogonalLoop=1;jettySize=auto;html=1;entryX=0.5;entryY=0;entryDx=0;entryDy=0;" parent="ZHizI140NHLcBaaToUWF-2" source="vvLd60g7PyFA4-DbAIz2-118" target="vvLd60g7PyFA4-DbAIz2-121" edge="1">
          <mxGeometry relative="1" as="geometry" />
        </mxCell>
        <mxCell id="vvLd60g7PyFA4-DbAIz2-118" value="excutor에 3초마다 &lt;br&gt;LinkPrunerTask() 실행" style="rounded=1;whiteSpace=wrap;html=1;" parent="ZHizI140NHLcBaaToUWF-2" vertex="1">
          <mxGeometry x="1430" y="960" width="210" height="70" as="geometry" />
        </mxCell>
        <mxCell id="vvLd60g7PyFA4-DbAIz2-121" value="requestIntercepts()" style="shape=process;whiteSpace=wrap;html=1;backgroundOutline=1;rounded=0;shadow=0;align=center;" parent="ZHizI140NHLcBaaToUWF-2" vertex="1">
          <mxGeometry x="1419" y="1100" width="232" height="60" as="geometry" />
        </mxCell>
        <mxCell id="vvLd60g7PyFA4-DbAIz2-127" style="edgeStyle=orthogonalEdgeStyle;rounded=0;orthogonalLoop=1;jettySize=auto;html=1;entryX=0.5;entryY=0;entryDx=0;entryDy=0;" parent="ZHizI140NHLcBaaToUWF-2" source="vvLd60g7PyFA4-DbAIz2-123" target="vvLd60g7PyFA4-DbAIz2-124" edge="1">
          <mxGeometry relative="1" as="geometry" />
        </mxCell>
        <mxCell id="vvLd60g7PyFA4-DbAIz2-123" value="loadDevices()" style="shape=process;whiteSpace=wrap;html=1;backgroundOutline=1;rounded=0;shadow=0;align=center;" parent="ZHizI140NHLcBaaToUWF-2" vertex="1">
          <mxGeometry x="1790" y="100" width="208" height="60" as="geometry" />
        </mxCell>
        <mxCell id="vvLd60g7PyFA4-DbAIz2-124" value="lldpProvider 및 deviceService가&lt;br&gt;활성화?&amp;nbsp;" style="rhombus;whiteSpace=wrap;html=1;rounded=0;shadow=0;align=center;" parent="ZHizI140NHLcBaaToUWF-2" vertex="1">
          <mxGeometry x="1789" y="220" width="210" height="80" as="geometry" />
        </mxCell>
        <mxCell id="vvLd60g7PyFA4-DbAIz2-129" value="for d : 모든 장비 updateDevice(d).ifPresent(ld&lt;br&gt;-&amp;gt;updatePorts(d, d.id())))&lt;br&gt;" style="shape=process;whiteSpace=wrap;html=1;backgroundOutline=1;rounded=0;shadow=0;align=center;" parent="ZHizI140NHLcBaaToUWF-2" vertex="1">
          <mxGeometry x="1790" y="360" width="210" height="60" as="geometry" />
        </mxCell>
        <mxCell id="vvLd60g7PyFA4-DbAIz2-132" style="edgeStyle=orthogonalEdgeStyle;rounded=0;orthogonalLoop=1;jettySize=auto;html=1;entryX=0.5;entryY=0;entryDx=0;entryDy=0;" parent="ZHizI140NHLcBaaToUWF-2" source="vvLd60g7PyFA4-DbAIz2-130" target="vvLd60g7PyFA4-DbAIz2-131" edge="1">
          <mxGeometry relative="1" as="geometry" />
        </mxCell>
        <mxCell id="vvLd60g7PyFA4-DbAIz2-130" value="updateDevice(device)" style="shape=process;whiteSpace=wrap;html=1;backgroundOutline=1;rounded=0;shadow=0;align=center;" parent="ZHizI140NHLcBaaToUWF-2" vertex="1">
          <mxGeometry x="2130" y="100" width="210" height="60" as="geometry" />
        </mxCell>
        <mxCell id="vvLd60g7PyFA4-DbAIz2-131" value="해당 장비가의 master가&amp;nbsp;&lt;br&gt;자신인가?" style="rhombus;whiteSpace=wrap;html=1;rounded=0;shadow=0;align=center;" parent="ZHizI140NHLcBaaToUWF-2" vertex="1">
          <mxGeometry x="2130" y="235" width="210" height="80" as="geometry" />
        </mxCell>
        <mxCell id="vvLd60g7PyFA4-DbAIz2-134" value="device가 linkTimes에서 &lt;br&gt;link의 목적지 디바이스라면&lt;br&gt;updateLinks에 해당 링크 추가" style="rounded=1;whiteSpace=wrap;html=1;" parent="ZHizI140NHLcBaaToUWF-2" vertex="1">
          <mxGeometry x="2130" y="390" width="210" height="50" as="geometry" />
        </mxCell>
        <mxCell id="vvLd60g7PyFA4-DbAIz2-140" style="edgeStyle=orthogonalEdgeStyle;rounded=0;orthogonalLoop=1;jettySize=auto;html=1;" parent="ZHizI140NHLcBaaToUWF-2" source="vvLd60g7PyFA4-DbAIz2-138" target="vvLd60g7PyFA4-DbAIz2-139" edge="1">
          <mxGeometry relative="1" as="geometry" />
        </mxCell>
        <mxCell id="vvLd60g7PyFA4-DbAIz2-138" value="updateLinks에 있는 모든 중복 링크를&lt;br&gt;linkTimes에서 제거" style="rounded=1;whiteSpace=wrap;html=1;" parent="ZHizI140NHLcBaaToUWF-2" vertex="1">
          <mxGeometry x="2130" y="510" width="210" height="50" as="geometry" />
        </mxCell>
        <mxCell id="vvLd60g7PyFA4-DbAIz2-143" style="edgeStyle=orthogonalEdgeStyle;rounded=0;orthogonalLoop=1;jettySize=auto;html=1;entryX=0.5;entryY=0;entryDx=0;entryDy=0;" parent="ZHizI140NHLcBaaToUWF-2" source="vvLd60g7PyFA4-DbAIz2-139" target="vvLd60g7PyFA4-DbAIz2-142" edge="1">
          <mxGeometry relative="1" as="geometry" />
        </mxCell>
        <mxCell id="vvLd60g7PyFA4-DbAIz2-139" value="removeDevice(deviceid())" style="shape=process;whiteSpace=wrap;html=1;backgroundOutline=1;rounded=0;shadow=0;align=center;" parent="ZHizI140NHLcBaaToUWF-2" vertex="1">
          <mxGeometry x="2130" y="640" width="210" height="60" as="geometry" />
        </mxCell>
        <mxCell id="vvLd60g7PyFA4-DbAIz2-142" value="return Optional.empty()" style="rounded=1;whiteSpace=wrap;html=1;" parent="ZHizI140NHLcBaaToUWF-2" vertex="1">
          <mxGeometry x="2130" y="780" width="210" height="50" as="geometry" />
        </mxCell>
        <mxCell id="vvLd60g7PyFA4-DbAIz2-146" value="device가&amp;nbsp;&lt;br&gt;Suppress, Blacklist에 포함되는가?" style="rhombus;whiteSpace=wrap;html=1;rounded=0;shadow=0;align=center;" parent="ZHizI140NHLcBaaToUWF-2" vertex="1">
          <mxGeometry x="2410" y="235" width="210" height="80" as="geometry" />
        </mxCell>
        <mxCell id="vvLd60g7PyFA4-DbAIz2-151" style="edgeStyle=orthogonalEdgeStyle;rounded=0;orthogonalLoop=1;jettySize=auto;html=1;entryX=0.5;entryY=0;entryDx=0;entryDy=0;" parent="ZHizI140NHLcBaaToUWF-2" source="vvLd60g7PyFA4-DbAIz2-149" target="vvLd60g7PyFA4-DbAIz2-150" edge="1">
          <mxGeometry relative="1" as="geometry" />
        </mxCell>
        <mxCell id="vvLd60g7PyFA4-DbAIz2-149" value="removeDevice(device.id())" style="rounded=1;whiteSpace=wrap;html=1;" parent="ZHizI140NHLcBaaToUWF-2" vertex="1">
          <mxGeometry x="2690" y="250" width="210" height="50" as="geometry" />
        </mxCell>
        <mxCell id="vvLd60g7PyFA4-DbAIz2-150" value="return Optional.empty()" style="rounded=1;whiteSpace=wrap;html=1;" parent="ZHizI140NHLcBaaToUWF-2" vertex="1">
          <mxGeometry x="2690" y="350" width="210" height="50" as="geometry" />
        </mxCell>
        <mxCell id="vvLd60g7PyFA4-DbAIz2-156" style="edgeStyle=orthogonalEdgeStyle;rounded=0;orthogonalLoop=1;jettySize=auto;html=1;entryX=0.5;entryY=0;entryDx=0;entryDy=0;" parent="ZHizI140NHLcBaaToUWF-2" source="vvLd60g7PyFA4-DbAIz2-154" target="vvLd60g7PyFA4-DbAIz2-155" edge="1">
          <mxGeometry relative="1" as="geometry" />
        </mxCell>
        <mxCell id="vvLd60g7PyFA4-DbAIz2-154" value="ld = discovers.computeIfAbsent(&lt;br&gt;deivice.id(), did-&amp;gt;&lt;br&gt;new Discovery(device.id(), context));" style="shape=process;whiteSpace=wrap;html=1;backgroundOutline=1;rounded=0;shadow=0;align=center;" parent="ZHizI140NHLcBaaToUWF-2" vertex="1">
          <mxGeometry x="2410" y="391" width="210" height="79" as="geometry" />
        </mxCell>
        <mxCell id="vvLd60g7PyFA4-DbAIz2-155" value="ld.start()" style="rounded=1;whiteSpace=wrap;html=1;" parent="ZHizI140NHLcBaaToUWF-2" vertex="1">
          <mxGeometry x="2410" y="510" width="210" height="50" as="geometry" />
        </mxCell>
        <mxCell id="vvLd60g7PyFA4-DbAIz2-158" value="return Optional.of(ld)" style="rounded=1;whiteSpace=wrap;html=1;" parent="ZHizI140NHLcBaaToUWF-2" vertex="1">
          <mxGeometry x="2410" y="640" width="210" height="50" as="geometry" />
        </mxCell>
        <mxCell id="_4Tsdo4c0fnptvDRopdN-0" value="updatePort(discoverer, deivceId)" style="shape=process;whiteSpace=wrap;html=1;backgroundOutline=1;rounded=0;shadow=0;align=center;" parent="ZHizI140NHLcBaaToUWF-2" vertex="1">
          <mxGeometry x="3010" y="100" width="210" height="60" as="geometry" />
        </mxCell>
        <mxCell id="_4Tsdo4c0fnptvDRopdN-6" style="edgeStyle=orthogonalEdgeStyle;rounded=0;orthogonalLoop=1;jettySize=auto;html=1;entryX=1;entryY=0.5;entryDx=0;entryDy=0;" parent="ZHizI140NHLcBaaToUWF-2" source="_4Tsdo4c0fnptvDRopdN-4" target="_4Tsdo4c0fnptvDRopdN-5" edge="1">
          <mxGeometry relative="1" as="geometry">
            <Array as="points">
              <mxPoint x="3290" y="270" />
              <mxPoint x="3290" y="410" />
            </Array>
          </mxGeometry>
        </mxCell>
        <mxCell id="_4Tsdo4c0fnptvDRopdN-4" value="for port : deviceId.모든 포트 .&lt;br&gt;port.updatePort(discoverer, ports)" style="shape=process;whiteSpace=wrap;html=1;backgroundOutline=1;rounded=0;shadow=0;align=center;" parent="ZHizI140NHLcBaaToUWF-2" vertex="1">
          <mxGeometry x="3010" y="240" width="210" height="60" as="geometry" />
        </mxCell>
        <mxCell id="_4Tsdo4c0fnptvDRopdN-8" value="no" style="edgeStyle=orthogonalEdgeStyle;rounded=0;orthogonalLoop=1;jettySize=auto;html=1;entryX=0.5;entryY=0;entryDx=0;entryDy=0;" parent="ZHizI140NHLcBaaToUWF-2" source="_4Tsdo4c0fnptvDRopdN-5" target="_4Tsdo4c0fnptvDRopdN-7" edge="1">
          <mxGeometry relative="1" as="geometry" />
        </mxCell>
        <mxCell id="_4Tsdo4c0fnptvDRopdN-5" value="updatePort(discoverer, port)" style="shape=process;whiteSpace=wrap;html=1;backgroundOutline=1;rounded=0;shadow=0;align=center;" parent="ZHizI140NHLcBaaToUWF-2" vertex="1">
          <mxGeometry x="3010" y="380" width="210" height="60" as="geometry" />
        </mxCell>
        <mxCell id="_4Tsdo4c0fnptvDRopdN-7" value="port가 Logical Port&lt;br&gt;(Loopback) 포트인가?" style="rhombus;whiteSpace=wrap;html=1;rounded=0;shadow=0;align=center;" parent="ZHizI140NHLcBaaToUWF-2" vertex="1">
          <mxGeometry x="3010" y="540" width="210" height="80" as="geometry" />
        </mxCell>
        <mxCell id="_4Tsdo4c0fnptvDRopdN-14" style="edgeStyle=orthogonalEdgeStyle;rounded=0;orthogonalLoop=1;jettySize=auto;html=1;" parent="ZHizI140NHLcBaaToUWF-2" source="_4Tsdo4c0fnptvDRopdN-10" target="_4Tsdo4c0fnptvDRopdN-13" edge="1">
          <mxGeometry relative="1" as="geometry" />
        </mxCell>
        <mxCell id="_4Tsdo4c0fnptvDRopdN-10" value="port가 Suppressed되었거나&lt;br&gt;blacklist에 있는가?" style="rhombus;whiteSpace=wrap;html=1;rounded=0;shadow=0;align=center;" parent="ZHizI140NHLcBaaToUWF-2" vertex="1">
          <mxGeometry x="3010" y="720" width="210" height="80" as="geometry" />
        </mxCell>
        <mxCell id="_4Tsdo4c0fnptvDRopdN-16" style="edgeStyle=orthogonalEdgeStyle;rounded=0;orthogonalLoop=1;jettySize=auto;html=1;entryX=0;entryY=0.5;entryDx=0;entryDy=0;" parent="ZHizI140NHLcBaaToUWF-2" source="_4Tsdo4c0fnptvDRopdN-12" target="_4Tsdo4c0fnptvDRopdN-15" edge="1">
          <mxGeometry relative="1" as="geometry" />
        </mxCell>
        <mxCell id="_4Tsdo4c0fnptvDRopdN-12" value="port가 활성화 되있는가?" style="rhombus;whiteSpace=wrap;html=1;rounded=0;shadow=0;align=center;" parent="ZHizI140NHLcBaaToUWF-2" vertex="1">
          <mxGeometry x="3010" y="880" width="210" height="80" as="geometry" />
        </mxCell>
        <mxCell id="_4Tsdo4c0fnptvDRopdN-13" value="removePort(port)" style="shape=process;whiteSpace=wrap;html=1;backgroundOutline=1;rounded=0;shadow=0;align=center;" parent="ZHizI140NHLcBaaToUWF-2" vertex="1">
          <mxGeometry x="3300" y="730" width="180" height="60" as="geometry" />
        </mxCell>
        <mxCell id="_4Tsdo4c0fnptvDRopdN-15" value="removePort(port)" style="shape=process;whiteSpace=wrap;html=1;backgroundOutline=1;rounded=0;shadow=0;align=center;" parent="ZHizI140NHLcBaaToUWF-2" vertex="1">
          <mxGeometry x="3300" y="890" width="180" height="60" as="geometry" />
        </mxCell>
        <mxCell id="_4Tsdo4c0fnptvDRopdN-209" value="discoverer.addPort&lt;br&gt;(port)" style="shape=process;whiteSpace=wrap;html=1;backgroundOutline=1;rounded=0;shadow=0;align=center;" parent="ZHizI140NHLcBaaToUWF-2" vertex="1">
          <mxGeometry x="3025" y="1040" width="180" height="60" as="geometry" />
        </mxCell>
        <mxCell id="_4Tsdo4c0fnptvDRopdN-210" value="removePort(port)" style="shape=process;whiteSpace=wrap;html=1;backgroundOutline=1;rounded=0;shadow=0;align=center;" parent="ZHizI140NHLcBaaToUWF-2" vertex="1">
          <mxGeometry x="3590" y="100" width="180" height="60" as="geometry" />
        </mxCell>
        <mxCell id="_4Tsdo4c0fnptvDRopdN-217" style="edgeStyle=orthogonalEdgeStyle;rounded=0;orthogonalLoop=1;jettySize=auto;html=1;entryX=0.5;entryY=0;entryDx=0;entryDy=0;" parent="ZHizI140NHLcBaaToUWF-2" source="_4Tsdo4c0fnptvDRopdN-214" target="_4Tsdo4c0fnptvDRopdN-216" edge="1">
          <mxGeometry relative="1" as="geometry" />
        </mxCell>
        <mxCell id="_4Tsdo4c0fnptvDRopdN-214" value="ld =&amp;nbsp;&lt;br&gt;port.디바이스.LinkDiscovery" style="rounded=1;whiteSpace=wrap;html=1;shadow=0;align=center;" parent="ZHizI140NHLcBaaToUWF-2" vertex="1">
          <mxGeometry x="3590" y="250" width="180" height="60" as="geometry" />
        </mxCell>
        <mxCell id="vpcClEI2U5E3m80pB1s--2" style="edgeStyle=orthogonalEdgeStyle;rounded=0;orthogonalLoop=1;jettySize=auto;html=1;entryX=0;entryY=0.5;entryDx=0;entryDy=0;" parent="ZHizI140NHLcBaaToUWF-2" source="_4Tsdo4c0fnptvDRopdN-216" target="vpcClEI2U5E3m80pB1s--1" edge="1">
          <mxGeometry relative="1" as="geometry" />
        </mxCell>
        <mxCell id="_4Tsdo4c0fnptvDRopdN-216" value="ld.removePort&lt;br&gt;(port.number())" style="shape=process;whiteSpace=wrap;html=1;backgroundOutline=1;rounded=0;shadow=0;align=center;" parent="ZHizI140NHLcBaaToUWF-2" vertex="1">
          <mxGeometry x="3590" y="390" width="180" height="60" as="geometry" />
        </mxCell>
        <mxCell id="vpcClEI2U5E3m80pB1s--1" value="LinkDiscovery.removePort&lt;br&gt;(port)" style="shape=process;whiteSpace=wrap;html=1;backgroundOutline=1;rounded=0;shadow=0;align=center;" parent="ZHizI140NHLcBaaToUWF-2" vertex="1">
          <mxGeometry x="4050" y="100" width="180" height="60" as="geometry" />
        </mxCell>
        <mxCell id="vpcClEI2U5E3m80pB1s--4" value="portMap에 있는 해당 &lt;br&gt;port포트 삭제" style="rounded=1;whiteSpace=wrap;html=1;shadow=0;align=center;" parent="ZHizI140NHLcBaaToUWF-2" vertex="1">
          <mxGeometry x="4050" y="220" width="180" height="60" as="geometry" />
        </mxCell>
        <mxCell id="vpcClEI2U5E3m80pB1s--5" value="discoverer.addPort&lt;br&gt;(port)" style="shape=process;whiteSpace=wrap;html=1;backgroundOutline=1;rounded=0;shadow=0;align=center;" parent="ZHizI140NHLcBaaToUWF-2" vertex="1">
          <mxGeometry x="3590" y="560" width="180" height="60" as="geometry" />
        </mxCell>
        <mxCell id="vpcClEI2U5E3m80pB1s--11" style="edgeStyle=orthogonalEdgeStyle;rounded=0;orthogonalLoop=1;jettySize=auto;html=1;entryX=0.5;entryY=0;entryDx=0;entryDy=0;" parent="ZHizI140NHLcBaaToUWF-2" source="vpcClEI2U5E3m80pB1s--8" target="vpcClEI2U5E3m80pB1s--10" edge="1">
          <mxGeometry relative="1" as="geometry" />
        </mxCell>
        <mxCell id="vpcClEI2U5E3m80pB1s--8" value="portMap.put(portNum, PortName)" style="rounded=1;whiteSpace=wrap;html=1;shadow=0;align=center;" parent="ZHizI140NHLcBaaToUWF-2" vertex="1">
          <mxGeometry x="3590" y="800" width="180" height="60" as="geometry" />
        </mxCell>
        <mxCell id="vpcClEI2U5E3m80pB1s--122" value="yes" style="edgeStyle=orthogonalEdgeStyle;rounded=0;orthogonalLoop=1;jettySize=auto;html=1;" parent="ZHizI140NHLcBaaToUWF-2" source="vpcClEI2U5E3m80pB1s--10" target="vpcClEI2U5E3m80pB1s--121" edge="1">
          <mxGeometry relative="1" as="geometry" />
        </mxCell>
        <mxCell id="vpcClEI2U5E3m80pB1s--10" value="이 디바이스의 master가&lt;br&gt;자신인가?" style="rhombus;whiteSpace=wrap;html=1;rounded=0;shadow=0;align=center;" parent="ZHizI140NHLcBaaToUWF-2" vertex="1">
          <mxGeometry x="3575" y="920" width="210" height="80" as="geometry" />
        </mxCell>
        <mxCell id="vpcClEI2U5E3m80pB1s--130" value="yes" style="edgeStyle=orthogonalEdgeStyle;rounded=0;orthogonalLoop=1;jettySize=auto;html=1;entryX=0;entryY=0.5;entryDx=0;entryDy=0;" parent="ZHizI140NHLcBaaToUWF-2" source="vpcClEI2U5E3m80pB1s--121" target="vpcClEI2U5E3m80pB1s--128" edge="1">
          <mxGeometry relative="1" as="geometry" />
        </mxCell>
        <mxCell id="vpcClEI2U5E3m80pB1s--121" value="newPort == true" style="rhombus;whiteSpace=wrap;html=1;rounded=0;shadow=0;align=center;" parent="ZHizI140NHLcBaaToUWF-2" vertex="1">
          <mxGeometry x="3575" y="1050" width="210" height="80" as="geometry" />
        </mxCell>
        <mxCell id="vpcClEI2U5E3m80pB1s--125" style="edgeStyle=orthogonalEdgeStyle;rounded=0;orthogonalLoop=1;jettySize=auto;html=1;" parent="ZHizI140NHLcBaaToUWF-2" target="vpcClEI2U5E3m80pB1s--8" edge="1">
          <mxGeometry relative="1" as="geometry">
            <mxPoint x="3680" y="740" as="sourcePoint" />
          </mxGeometry>
        </mxCell>
        <mxCell id="vpcClEI2U5E3m80pB1s--126" value="&lt;span&gt;boolean newPort =&amp;nbsp;&lt;/span&gt;&lt;br&gt;&lt;span&gt;portMap.containsPort(port)&lt;br&gt;portMap에 해당 포트 삽입&lt;br&gt;&lt;/span&gt;" style="rounded=1;whiteSpace=wrap;html=1;shadow=0;align=center;" parent="ZHizI140NHLcBaaToUWF-2" vertex="1">
          <mxGeometry x="3590" y="680" width="180" height="60" as="geometry" />
        </mxCell>
        <mxCell id="vpcClEI2U5E3m80pB1s--128" value="sendProbes(포트)" style="shape=process;whiteSpace=wrap;html=1;backgroundOutline=1;rounded=0;shadow=0;align=center;" parent="ZHizI140NHLcBaaToUWF-2" vertex="1">
          <mxGeometry x="3850" y="1060" width="140" height="60" as="geometry" />
        </mxCell>
        <mxCell id="vpcClEI2U5E3m80pB1s--131" value="sendProbes(포트)" style="shape=process;whiteSpace=wrap;html=1;backgroundOutline=1;rounded=0;shadow=0;align=center;" parent="ZHizI140NHLcBaaToUWF-2" vertex="1">
          <mxGeometry x="4400" y="100" width="140" height="60" as="geometry" />
        </mxCell>
        <mxCell id="vpcClEI2U5E3m80pB1s--133" value="packetService&lt;br&gt;작동?" style="rhombus;whiteSpace=wrap;html=1;rounded=0;shadow=0;align=center;" parent="ZHizI140NHLcBaaToUWF-2" vertex="1">
          <mxGeometry x="4400" y="220" width="140" height="80" as="geometry" />
        </mxCell>
        <mxCell id="vpcClEI2U5E3m80pB1s--138" style="edgeStyle=orthogonalEdgeStyle;rounded=0;orthogonalLoop=1;jettySize=auto;html=1;" parent="ZHizI140NHLcBaaToUWF-2" source="vpcClEI2U5E3m80pB1s--136" target="vpcClEI2U5E3m80pB1s--137" edge="1">
          <mxGeometry relative="1" as="geometry" />
        </mxCell>
        <mxCell id="vpcClEI2U5E3m80pB1s--136" value="&lt;span&gt;pkt = createOutBoundLldp&lt;/span&gt;&lt;br&gt;&lt;span&gt;(포트)&lt;/span&gt;" style="shape=process;whiteSpace=wrap;html=1;backgroundOutline=1;rounded=0;shadow=0;align=center;" parent="ZHizI140NHLcBaaToUWF-2" vertex="1">
          <mxGeometry x="4400" y="360" width="150" height="60" as="geometry" />
        </mxCell>
        <mxCell id="vpcClEI2U5E3m80pB1s--137" value="packetService.emit(pkt)" style="rounded=1;whiteSpace=wrap;html=1;shadow=0;align=center;" parent="ZHizI140NHLcBaaToUWF-2" vertex="1">
          <mxGeometry x="4400" y="485" width="150" height="60" as="geometry" />
        </mxCell>
        <mxCell id="vpcClEI2U5E3m80pB1s--142" value="yes" style="edgeStyle=orthogonalEdgeStyle;rounded=0;orthogonalLoop=1;jettySize=auto;html=1;" parent="ZHizI140NHLcBaaToUWF-2" source="vpcClEI2U5E3m80pB1s--140" target="vpcClEI2U5E3m80pB1s--141" edge="1">
          <mxGeometry relative="1" as="geometry" />
        </mxCell>
        <mxCell id="vpcClEI2U5E3m80pB1s--140" value="BDDP 사용?" style="rhombus;whiteSpace=wrap;html=1;rounded=0;shadow=0;align=center;" parent="ZHizI140NHLcBaaToUWF-2" vertex="1">
          <mxGeometry x="4405" y="610" width="140" height="80" as="geometry" />
        </mxCell>
        <mxCell id="vpcClEI2U5E3m80pB1s--144" style="edgeStyle=orthogonalEdgeStyle;rounded=0;orthogonalLoop=1;jettySize=auto;html=1;entryX=0.5;entryY=0;entryDx=0;entryDy=0;" parent="ZHizI140NHLcBaaToUWF-2" source="vpcClEI2U5E3m80pB1s--141" target="vpcClEI2U5E3m80pB1s--143" edge="1">
          <mxGeometry relative="1" as="geometry" />
        </mxCell>
        <mxCell id="vpcClEI2U5E3m80pB1s--141" value="&lt;span&gt;pkt = createOutBoundBDDP&lt;/span&gt;&lt;br&gt;&lt;span&gt;(포트)&lt;/span&gt;" style="shape=process;whiteSpace=wrap;html=1;backgroundOutline=1;rounded=0;shadow=0;align=center;" parent="ZHizI140NHLcBaaToUWF-2" vertex="1">
          <mxGeometry x="4400" y="770" width="150" height="60" as="geometry" />
        </mxCell>
        <mxCell id="vpcClEI2U5E3m80pB1s--143" value="packetService.emit(pkt)" style="rounded=1;whiteSpace=wrap;html=1;shadow=0;align=center;" parent="ZHizI140NHLcBaaToUWF-2" vertex="1">
          <mxGeometry x="4400" y="920" width="150" height="60" as="geometry" />
        </mxCell>
        <mxCell id="vpcClEI2U5E3m80pB1s--148" style="edgeStyle=orthogonalEdgeStyle;rounded=0;orthogonalLoop=1;jettySize=auto;html=1;entryX=0.5;entryY=0;entryDx=0;entryDy=0;" parent="ZHizI140NHLcBaaToUWF-2" source="vpcClEI2U5E3m80pB1s--145" target="vpcClEI2U5E3m80pB1s--147" edge="1">
          <mxGeometry relative="1" as="geometry" />
        </mxCell>
        <mxCell id="vpcClEI2U5E3m80pB1s--145" value="&lt;span&gt;pkt = createOutBoundLldp&lt;/span&gt;&lt;br&gt;&lt;span&gt;(포트)&lt;/span&gt;" style="shape=process;whiteSpace=wrap;html=1;backgroundOutline=1;rounded=0;shadow=0;align=center;" parent="ZHizI140NHLcBaaToUWF-2" vertex="1">
          <mxGeometry x="4705" y="100" width="150" height="60" as="geometry" />
        </mxCell>
        <mxCell id="vpcClEI2U5E3m80pB1s--147" value="lldp =&lt;br&gt;&amp;nbsp;getLinkProbe(포트)" style="shape=process;whiteSpace=wrap;html=1;backgroundOutline=1;rounded=0;shadow=0;align=center;" parent="ZHizI140NHLcBaaToUWF-2" vertex="1">
          <mxGeometry x="4702.5" y="220" width="155" height="60" as="geometry" />
        </mxCell>
        <mxCell id="vpcClEI2U5E3m80pB1s--149" value="getLinkProbe(포트)" style="shape=process;whiteSpace=wrap;html=1;backgroundOutline=1;rounded=0;shadow=0;align=center;" parent="ZHizI140NHLcBaaToUWF-2" vertex="1">
          <mxGeometry x="4940" y="100" width="155" height="60" as="geometry" />
        </mxCell>
        <mxCell id="vpcClEI2U5E3m80pB1s--153" style="edgeStyle=orthogonalEdgeStyle;rounded=0;orthogonalLoop=1;jettySize=auto;html=1;entryX=1;entryY=0.5;entryDx=0;entryDy=0;" parent="ZHizI140NHLcBaaToUWF-2" source="vpcClEI2U5E3m80pB1s--151" target="vpcClEI2U5E3m80pB1s--152" edge="1">
          <mxGeometry relative="1" as="geometry">
            <Array as="points">
              <mxPoint x="5190" y="280" />
              <mxPoint x="5190" y="470" />
            </Array>
          </mxGeometry>
        </mxCell>
        <mxCell id="vpcClEI2U5E3m80pB1s--151" value="return&lt;br&gt;ONOSLLDP.SecureLLDP&lt;br&gt;(deviceId.toString(), device.chassisID(),&lt;br&gt;portNumber,&lt;br&gt;port Desc,&lt;br&gt;context.lldpSecret()" style="shape=process;whiteSpace=wrap;html=1;backgroundOutline=1;rounded=0;shadow=0;align=center;" parent="ZHizI140NHLcBaaToUWF-2" vertex="1">
          <mxGeometry x="4940" y="220" width="155" height="120" as="geometry" />
        </mxCell>
        <mxCell id="vpcClEI2U5E3m80pB1s--152" value="ONOSLLDP.SecureLLDP&lt;br&gt;(deviceId, &lt;br&gt;chassisID,&lt;br&gt;portNumber,&lt;br&gt;port Desc,&lt;br&gt;secret" style="shape=process;whiteSpace=wrap;html=1;backgroundOutline=1;rounded=0;shadow=0;align=center;" parent="ZHizI140NHLcBaaToUWF-2" vertex="1">
          <mxGeometry x="4940" y="410" width="155" height="120" as="geometry" />
        </mxCell>
        <mxCell id="vpcClEI2U5E3m80pB1s--155" value="ONOSLLDP.SecureLLDP&lt;br&gt;(deviceId, &lt;br&gt;chassisID,&lt;br&gt;portNumber,&lt;br&gt;seccret)" style="shape=process;whiteSpace=wrap;html=1;backgroundOutline=1;rounded=0;shadow=0;align=center;" parent="ZHizI140NHLcBaaToUWF-2" vertex="1">
          <mxGeometry x="4940" y="610" width="155" height="90" as="geometry" />
        </mxCell>
        <mxCell id="vpcClEI2U5E3m80pB1s--157" value="secret == null ?" style="rhombus;whiteSpace=wrap;html=1;rounded=0;shadow=0;align=center;" parent="ZHizI140NHLcBaaToUWF-2" vertex="1">
          <mxGeometry x="4940" y="770" width="150" height="80" as="geometry" />
        </mxCell>
        <mxCell id="vpcClEI2U5E3m80pB1s--159" value="" style="rounded=1;whiteSpace=wrap;html=1;shadow=0;align=center;" parent="ZHizI140NHLcBaaToUWF-2" vertex="1">
          <mxGeometry x="4940" y="910" width="150" height="60" as="geometry" />
        </mxCell>
        <mxCell id="ZHizI140NHLcBaaToUWF-28" value="OpenflowControllerImpl.java" style="swimlane;connectable=0;startSize=20;html=1;whiteSpace=wrap;collapsible=0;recursiveResize=0;expand=0;pointerEvents=0;align=center;" parent="ZHizI140NHLcBaaToUWF-1" vertex="1">
          <mxGeometry x="6060" width="90" height="1250" as="geometry" />
        </mxCell>
        <mxCell id="vvLd60g7PyFA4-DbAIz2-128" value="yes" style="edgeStyle=orthogonalEdgeStyle;rounded=0;orthogonalLoop=1;jettySize=auto;html=1;" parent="SkbhwHbkE8fWBWR_ipCa-1" source="vvLd60g7PyFA4-DbAIz2-124" edge="1">
          <mxGeometry relative="1" as="geometry">
            <mxPoint x="1174" y="-750" as="targetPoint" />
          </mxGeometry>
        </mxCell>
        <mxCell id="vvLd60g7PyFA4-DbAIz2-133" value="yes" style="edgeStyle=orthogonalEdgeStyle;rounded=0;orthogonalLoop=1;jettySize=auto;html=1;" parent="SkbhwHbkE8fWBWR_ipCa-1" source="vvLd60g7PyFA4-DbAIz2-131" edge="1">
          <mxGeometry relative="1" as="geometry">
            <mxPoint x="1515" y="-720" as="targetPoint" />
          </mxGeometry>
        </mxCell>
        <mxCell id="vvLd60g7PyFA4-DbAIz2-135" style="edgeStyle=orthogonalEdgeStyle;rounded=0;orthogonalLoop=1;jettySize=auto;html=1;" parent="SkbhwHbkE8fWBWR_ipCa-1" source="vvLd60g7PyFA4-DbAIz2-129" edge="1">
          <mxGeometry relative="1" as="geometry">
            <mxPoint x="1175" y="-620" as="targetPoint" />
          </mxGeometry>
        </mxCell>
        <mxCell id="vvLd60g7PyFA4-DbAIz2-137" style="edgeStyle=orthogonalEdgeStyle;rounded=0;orthogonalLoop=1;jettySize=auto;html=1;" parent="SkbhwHbkE8fWBWR_ipCa-1" source="vvLd60g7PyFA4-DbAIz2-134" edge="1">
          <mxGeometry relative="1" as="geometry">
            <mxPoint x="1515" y="-600" as="targetPoint" />
          </mxGeometry>
        </mxCell>
        <mxCell id="vvLd60g7PyFA4-DbAIz2-144" value="no" style="edgeStyle=orthogonalEdgeStyle;rounded=0;orthogonalLoop=1;jettySize=auto;html=1;" parent="SkbhwHbkE8fWBWR_ipCa-1" source="vvLd60g7PyFA4-DbAIz2-131" edge="1">
          <mxGeometry relative="1" as="geometry">
            <mxPoint x="1690" y="-835" as="targetPoint" />
          </mxGeometry>
        </mxCell>
        <mxCell id="vvLd60g7PyFA4-DbAIz2-148" value="yes" style="edgeStyle=orthogonalEdgeStyle;rounded=0;orthogonalLoop=1;jettySize=auto;html=1;" parent="SkbhwHbkE8fWBWR_ipCa-1" source="vvLd60g7PyFA4-DbAIz2-146" edge="1">
          <mxGeometry relative="1" as="geometry">
            <mxPoint x="1970" y="-835" as="targetPoint" />
          </mxGeometry>
        </mxCell>
        <mxCell id="vvLd60g7PyFA4-DbAIz2-152" value="no" style="edgeStyle=orthogonalEdgeStyle;rounded=0;orthogonalLoop=1;jettySize=auto;html=1;" parent="SkbhwHbkE8fWBWR_ipCa-1" source="vvLd60g7PyFA4-DbAIz2-146" edge="1">
          <mxGeometry relative="1" as="geometry">
            <mxPoint x="1795" y="-720" as="targetPoint" />
          </mxGeometry>
        </mxCell>
        <mxCell id="vvLd60g7PyFA4-DbAIz2-157" style="edgeStyle=orthogonalEdgeStyle;rounded=0;orthogonalLoop=1;jettySize=auto;html=1;" parent="SkbhwHbkE8fWBWR_ipCa-1" source="vvLd60g7PyFA4-DbAIz2-155" edge="1">
          <mxGeometry relative="1" as="geometry">
            <mxPoint x="1795" y="-470" as="targetPoint" />
          </mxGeometry>
        </mxCell>
        <mxCell id="_4Tsdo4c0fnptvDRopdN-1" style="edgeStyle=orthogonalEdgeStyle;rounded=0;orthogonalLoop=1;jettySize=auto;html=1;" parent="SkbhwHbkE8fWBWR_ipCa-1" source="_4Tsdo4c0fnptvDRopdN-0" edge="1">
          <mxGeometry relative="1" as="geometry">
            <mxPoint x="2395" y="-870" as="targetPoint" />
          </mxGeometry>
        </mxCell>
        <mxCell id="_4Tsdo4c0fnptvDRopdN-9" value="no" style="edgeStyle=orthogonalEdgeStyle;rounded=0;orthogonalLoop=1;jettySize=auto;html=1;" parent="SkbhwHbkE8fWBWR_ipCa-1" source="_4Tsdo4c0fnptvDRopdN-7" edge="1">
          <mxGeometry relative="1" as="geometry">
            <mxPoint x="2395" y="-390" as="targetPoint" />
          </mxGeometry>
        </mxCell>
        <mxCell id="_4Tsdo4c0fnptvDRopdN-11" style="edgeStyle=orthogonalEdgeStyle;rounded=0;orthogonalLoop=1;jettySize=auto;html=1;" parent="SkbhwHbkE8fWBWR_ipCa-1" source="_4Tsdo4c0fnptvDRopdN-10" edge="1">
          <mxGeometry relative="1" as="geometry">
            <mxPoint x="2395" y="-230" as="targetPoint" />
          </mxGeometry>
        </mxCell>
        <mxCell id="_4Tsdo4c0fnptvDRopdN-17" style="edgeStyle=orthogonalEdgeStyle;rounded=0;orthogonalLoop=1;jettySize=auto;html=1;" parent="SkbhwHbkE8fWBWR_ipCa-1" source="_4Tsdo4c0fnptvDRopdN-12" edge="1">
          <mxGeometry relative="1" as="geometry">
            <mxPoint x="2395" y="-70" as="targetPoint" />
          </mxGeometry>
        </mxCell>
        <mxCell id="_4Tsdo4c0fnptvDRopdN-211" style="edgeStyle=orthogonalEdgeStyle;rounded=0;orthogonalLoop=1;jettySize=auto;html=1;" parent="SkbhwHbkE8fWBWR_ipCa-1" source="_4Tsdo4c0fnptvDRopdN-210" edge="1">
          <mxGeometry relative="1" as="geometry">
            <mxPoint x="2960" y="-860" as="targetPoint" />
          </mxGeometry>
        </mxCell>
        <mxCell id="vpcClEI2U5E3m80pB1s--3" style="edgeStyle=orthogonalEdgeStyle;rounded=0;orthogonalLoop=1;jettySize=auto;html=1;" parent="SkbhwHbkE8fWBWR_ipCa-1" source="vpcClEI2U5E3m80pB1s--1" edge="1">
          <mxGeometry relative="1" as="geometry">
            <mxPoint x="3420" y="-890" as="targetPoint" />
          </mxGeometry>
        </mxCell>
        <mxCell id="vpcClEI2U5E3m80pB1s--6" style="edgeStyle=orthogonalEdgeStyle;rounded=0;orthogonalLoop=1;jettySize=auto;html=1;" parent="SkbhwHbkE8fWBWR_ipCa-1" source="vpcClEI2U5E3m80pB1s--5" edge="1">
          <mxGeometry relative="1" as="geometry">
            <mxPoint x="2960" y="-430" as="targetPoint" />
          </mxGeometry>
        </mxCell>
        <mxCell id="vpcClEI2U5E3m80pB1s--132" style="edgeStyle=orthogonalEdgeStyle;rounded=0;orthogonalLoop=1;jettySize=auto;html=1;" parent="SkbhwHbkE8fWBWR_ipCa-1" source="vpcClEI2U5E3m80pB1s--131" edge="1">
          <mxGeometry relative="1" as="geometry">
            <mxPoint x="3750" y="-890" as="targetPoint" />
          </mxGeometry>
        </mxCell>
        <mxCell id="vpcClEI2U5E3m80pB1s--134" value="yes" style="edgeStyle=orthogonalEdgeStyle;rounded=0;orthogonalLoop=1;jettySize=auto;html=1;" parent="SkbhwHbkE8fWBWR_ipCa-1" source="vpcClEI2U5E3m80pB1s--133" edge="1">
          <mxGeometry relative="1" as="geometry">
            <mxPoint x="3750" y="-750" as="targetPoint" />
          </mxGeometry>
        </mxCell>
        <mxCell id="vpcClEI2U5E3m80pB1s--139" style="edgeStyle=orthogonalEdgeStyle;rounded=0;orthogonalLoop=1;jettySize=auto;html=1;" parent="SkbhwHbkE8fWBWR_ipCa-1" source="vpcClEI2U5E3m80pB1s--137" edge="1">
          <mxGeometry relative="1" as="geometry">
            <mxPoint x="3755" y="-500" as="targetPoint" />
          </mxGeometry>
        </mxCell>
        <mxCell id="vpcClEI2U5E3m80pB1s--150" style="edgeStyle=orthogonalEdgeStyle;rounded=0;orthogonalLoop=1;jettySize=auto;html=1;" parent="SkbhwHbkE8fWBWR_ipCa-1" source="vpcClEI2U5E3m80pB1s--149" edge="1">
          <mxGeometry relative="1" as="geometry">
            <mxPoint x="4297.5" y="-890" as="targetPoint" />
          </mxGeometry>
        </mxCell>
        <mxCell id="vpcClEI2U5E3m80pB1s--154" style="edgeStyle=orthogonalEdgeStyle;rounded=0;orthogonalLoop=1;jettySize=auto;html=1;" parent="SkbhwHbkE8fWBWR_ipCa-1" source="vpcClEI2U5E3m80pB1s--152" edge="1">
          <mxGeometry relative="1" as="geometry">
            <mxPoint x="4297.5" y="-490" as="targetPoint" />
          </mxGeometry>
        </mxCell>
        <mxCell id="vpcClEI2U5E3m80pB1s--156" style="edgeStyle=orthogonalEdgeStyle;rounded=0;orthogonalLoop=1;jettySize=auto;html=1;" parent="SkbhwHbkE8fWBWR_ipCa-1" source="vpcClEI2U5E3m80pB1s--155" edge="1">
          <mxGeometry relative="1" as="geometry">
            <mxPoint x="4297.5" y="-330" as="targetPoint" />
          </mxGeometry>
        </mxCell>
        <mxCell id="vpcClEI2U5E3m80pB1s--158" value="no" style="endArrow=classic;html=1;exitX=0.5;exitY=1;exitDx=0;exitDy=0;" parent="SkbhwHbkE8fWBWR_ipCa-1" source="vpcClEI2U5E3m80pB1s--157" edge="1">
          <mxGeometry width="50" height="50" relative="1" as="geometry">
            <mxPoint x="4400" y="-260" as="sourcePoint" />
            <mxPoint x="4295" y="-190" as="targetPoint" />
          </mxGeometry>
        </mxCell>
      </root>
    </mxGraphModel>
  </diagram>
</mxfile>
